<svg width="278" height="79" viewBox="0 0 278 79" fill="none" xmlns="http://www.w3.org/2000/svg">
<g clip-path="url(#clip0_304_2)">
<path d="M22.3672 17.2052H39.1675C44.1132 17.2052 47.9653 18.189 50.6494 20.1615C53.3632 22.1341 54.7252 24.9618 54.7252 28.6647C54.7252 30.7805 54.2385 32.6147 53.2638 34.1521C52.2896 35.7094 50.8531 36.9404 48.9445 37.8549C51.5788 38.725 53.5969 40.1043 55.0085 41.9928C56.4102 43.8813 57.106 46.1752 57.106 48.8645C57.106 51.5193 56.4251 53.8032 55.0681 55.6868C53.7112 57.595 51.7727 59.0683 49.2526 60.1064C46.7376 61.1446 43.7354 61.6637 40.2063 61.6637H22.3623L22.3672 17.2052ZM0 79.0012H79.5279V-0.0976562H0V79.0012ZM38.3225 24.6207C43.1489 24.6207 45.5794 26.3856 45.5794 29.9105C45.5794 31.7347 44.9631 33.1585 43.7255 34.1719C42.4878 35.1903 40.6934 35.6946 38.3573 35.6946H31.498V24.6207H38.3225ZM39.4757 42.6651H31.4235V54.6783H39.3266C42.0405 54.6783 44.133 54.1691 45.5894 53.1556C47.0507 52.1372 47.7814 50.6788 47.7814 48.7706C47.7814 44.7069 45.0029 42.6899 39.4309 42.6899L39.4757 42.6651Z" fill="black"/>
<path d="M121.777 17.2052H138.578C143.523 17.2052 147.375 18.189 150.06 20.1615C152.773 22.1341 154.135 24.9618 154.135 28.6647C154.135 30.7805 153.649 32.6147 152.674 34.1521C151.7 35.7094 150.258 36.9404 148.355 37.8549C150.989 38.725 153.007 40.1043 154.419 41.9928C155.82 43.8813 156.516 46.1752 156.516 48.8645C156.516 51.5193 155.835 53.8032 154.478 55.6868C153.121 57.595 151.183 59.0683 148.663 60.1064C146.148 61.1446 143.146 61.6637 139.617 61.6637H121.772L121.777 17.2052ZM99.4102 79.0012H178.938V-0.0976562H99.4102V79.0012ZM137.733 24.6207C142.559 24.6207 144.99 26.3856 144.99 29.9105C144.99 31.7347 144.373 33.1585 143.136 34.1719C141.898 35.1903 140.104 35.6946 137.767 35.6946H130.908V24.6207H137.733ZM138.886 42.6651H130.834V54.6783H138.737C141.451 54.6783 143.543 54.1691 145 53.1556C146.461 52.1372 147.192 50.6788 147.192 48.7706C147.192 44.7069 144.413 42.6899 138.841 42.6899L138.886 42.6651Z" fill="black"/>
<path d="M249.519 61.2032C251.96 60.6149 254.107 59.8091 255.981 58.7956V50.3419C252.069 52.7396 247.78 53.9409 243.157 53.9409C240.125 53.9409 237.54 53.3724 235.403 52.2354C233.276 51.0983 231.655 49.4422 230.542 47.2423C229.424 45.067 228.867 42.4321 228.867 39.3324C228.867 36.2426 229.444 33.5977 230.602 31.4719C231.76 29.3165 233.42 27.6702 235.572 26.5332C237.739 25.3961 240.359 24.8276 243.426 24.8276C245.657 24.8276 247.785 25.1233 249.788 25.7125C251.806 26.3008 253.68 27.166 255.404 28.303V19.6516C253.511 18.6777 251.458 17.9361 249.241 17.4269C247.029 16.9177 244.683 16.6656 242.183 16.6656C238.604 16.6656 235.373 17.1946 232.49 18.2525C229.608 19.3105 227.122 20.8331 225.084 22.8254C223.022 24.8177 221.441 27.2055 220.348 29.9938C219.254 32.7771 218.707 35.8767 218.707 39.3373C218.707 42.877 219.234 46.0607 220.288 48.8786C221.342 51.7064 222.853 54.0695 224.836 56.0469C226.814 57.9997 229.235 59.4927 232.093 60.5309C234.956 61.569 238.157 62.0881 241.736 62.0881C244.43 62.0881 247.004 61.7925 249.44 61.2032H249.519ZM278.348 78.9016H198.82V-0.197266H278.348V78.9016Z" fill="black"/>
</g>
<defs>
<clipPath id="clip0_304_2">
<rect width="278" height="79" fill="white"/>
</clipPath>
</defs>
</svg>
