<svg width="251" height="79" viewBox="0 0 251 79" fill="none" xmlns="http://www.w3.org/2000/svg">
<g clip-path="url(#clip0_293_2)">
<path d="M80.8574 0V79H0V0H80.8574ZM42.6523 18.6777C37.4622 18.6778 33.5575 20.1995 30.9385 23.2432L29.1289 19.3438H22.1289V60.96H31.7959V30.9961C32.7959 29.712 34.1294 28.6658 35.6055 28C37.034 27.2866 38.5578 26.8581 40.1768 26.8105C43.2717 26.8106 45.4618 27.5719 46.8428 29.2363C48.2237 30.901 48.8906 33.4697 48.8906 36.9893V60.9121L58.6523 60.96V35.4668C58.6523 30.1875 57.2243 26.0494 54.3672 23.1006C51.5101 20.1518 47.6047 18.6777 42.6523 18.6777Z" fill="black"/>
<path d="M166.598 0V79H85.3594V0H166.598ZM125.869 18.6299C122.536 18.5348 119.297 19.772 116.916 22.1025V19.3438H107.202V71.9473H116.869V59.9141C119.488 61.1505 122.345 61.7683 125.202 61.7207C131.535 61.7207 136.583 59.8663 140.25 56.2041C143.917 52.5419 145.773 47.31 145.773 40.5088C145.773 25.9075 139.155 18.63 125.869 18.6299ZM123.06 26.9062C127.536 26.9063 130.726 27.9048 132.679 29.9023C134.631 31.8999 135.583 35.3719 135.583 40.2705C135.583 44.8838 134.583 48.2132 132.679 50.3535C130.726 52.4937 127.536 53.54 123.06 53.54C120.821 53.5876 118.63 52.8272 116.916 51.4004V29.6172C118.487 27.905 120.726 26.9538 123.06 26.9062Z" fill="black"/>
<path d="M251.004 0V79H171.1V0H251.004ZM219.037 18.6777C214.513 18.6778 210.942 20.2474 208.228 23.3389V19.3438H198.514V60.9121H208.228V37.3223C208.132 34.6113 209.085 31.9472 210.847 29.8545C212.561 27.8093 214.562 26.8105 216.8 26.8105C218.8 26.7631 220.752 27.334 222.466 28.4277L226.609 20.2002C224.847 19.2014 222.323 18.6777 219.037 18.6777Z" fill="black"/>
</g>
<defs>
<clipPath id="clip0_293_2">
<rect width="251" height="79" fill="white"/>
</clipPath>
</defs>
</svg>
