<svg width="328" height="96" viewBox="0 0 328 96" fill="none" xmlns="http://www.w3.org/2000/svg">
<path d="M25.6558 3.10975C32.1339 0.494874 39.3048 -0.342235 46.216 0.649462C55.8355 1.99117 64.857 7.04445 71.0828 14.4924C74.3802 18.4038 76.9178 22.9554 78.4943 27.8234C80.4485 33.8173 80.9137 40.278 79.9104 46.4994C79.0193 52.0675 76.9149 57.4401 73.7721 62.123C71.3687 65.7164 68.3673 68.9059 64.946 71.547C64.6514 71.776 64.3918 72.0443 64.1322 72.3112C60.0166 76.4924 54.6017 79.3304 48.8513 80.4504C48.1148 80.6006 47.3725 80.7188 46.6302 80.8267C46.8737 81.8651 47.2267 82.8743 47.6306 83.8616C47.3623 84.127 47.094 84.3953 46.8256 84.6637C46.1008 84.2583 45.0843 84.4858 44.7066 85.2529C44.218 86.0987 44.8131 87.2829 45.777 87.4084C46.5573 87.5557 47.2369 87.0379 47.7254 86.491C48.0375 87.77 47.9369 89.1613 47.2952 90.3251C46.0337 92.6862 43.7091 94.3065 41.2604 95.2617C40.909 95.3755 40.5371 95.6176 40.1652 95.4411C37.5883 94.5442 35.1251 92.9371 33.725 90.5395C32.9958 89.3334 32.8369 87.8575 33.1796 86.5013C33.6681 87.1094 34.4542 87.5994 35.2578 87.3777C36.1065 87.1736 36.6097 86.1425 36.2334 85.3506C35.9155 84.5674 34.9048 84.232 34.1684 84.6301C33.8781 84.3676 33.6025 84.0891 33.3269 83.8105C33.954 82.7328 34.5402 81.6259 34.9603 80.449C33.4392 80.1515 31.9545 79.6994 30.467 79.2823C28.5128 79.9911 26.3369 80.1135 24.3447 79.4864C21.2938 78.5808 18.8364 76.0141 18.0139 72.9456C11.8771 68.7761 6.94774 62.8551 3.97119 56.0591C1.34319 50.1074 0.227533 43.5039 0.726298 37.0185C1.24256 30.0693 3.65472 23.2762 7.62005 17.5477C12.0477 11.1089 18.4004 6.01483 25.6558 3.10975ZM35.6851 1.66449C28.5901 2.5366 21.7678 5.45482 16.2172 9.95391C9.96075 14.9839 5.32165 21.9972 3.1895 29.7397C1.29652 36.5489 1.32715 43.8772 3.27408 50.6704C5.60603 58.9175 10.7949 66.31 17.7324 71.3385C17.5589 69.4134 18.0256 67.4577 18.9983 65.7937C18.5273 65.3475 18.0752 64.8823 17.6464 64.3952C17.7499 64.3193 17.8535 64.2435 17.9585 64.1691C18.4018 64.5556 18.8831 64.8968 19.3687 65.2323C20.3619 63.8206 21.7328 62.6859 23.3093 61.9845C20.184 59.5358 17.5851 56.4149 15.7622 52.8856C13.3486 48.3136 12.2694 43.0474 12.6865 37.8935C13.0948 32.4348 15.1919 27.1219 18.5987 22.8387C22.1936 18.2812 27.2367 14.8818 32.8223 13.2951C37.4366 11.9752 42.3907 11.8658 47.056 12.9888C51.787 14.1205 56.2015 16.5239 59.7264 19.8767C62.719 22.7089 65.0801 26.209 66.5662 30.0547C68.1456 34.1163 68.7319 38.5542 68.29 42.887C67.7781 48.0613 65.751 53.065 62.544 57.1558C59.1197 61.5484 54.3611 64.8925 49.0496 66.5813C48.4678 66.7388 47.9544 67.0946 47.6044 67.5846C46.7031 68.8315 46.3516 70.3876 46.2058 71.8956C52.0379 73.211 58.2651 72.9617 63.8916 70.8937C69.9759 66.3596 74.6515 59.9573 77.1234 52.7836C79.1885 46.8144 79.7514 40.3363 78.783 34.0974C77.9328 28.592 75.8561 23.2835 72.7629 18.6531C68.4242 12.1313 62.073 6.9657 54.7854 4.08394C48.7594 1.67908 42.1194 0.85801 35.6851 1.66449ZM35.9753 13.7282C30.7703 14.6061 25.86 17.1029 22.0536 20.7547C18.0299 24.5814 15.2401 29.6901 14.2367 35.1547C13.3733 39.7398 13.7409 44.551 15.3101 48.9466C17.0208 53.8132 20.1781 58.1518 24.2689 61.2946C24.4191 61.3953 24.5766 61.579 24.7793 61.4872C26.3471 61.0905 28.014 61.0919 29.573 61.5309C32.0858 62.212 34.285 63.9824 35.4619 66.3085C40.8594 67.3615 46.5806 66.6877 51.5799 64.3952C56.3167 62.244 60.39 58.6725 63.1565 54.2682C66.4277 49.1157 67.819 42.8155 67.0489 36.7633C66.5152 32.3896 64.8599 28.1618 62.2975 24.58C59.4785 20.6219 55.5715 17.4456 51.1074 15.5249C46.3823 13.4686 41.0504 12.8459 35.9753 13.7282ZM20.34 65.8667C20.8359 66.1642 21.3346 66.4573 21.8392 66.7417C23.0803 65.0456 25.1468 63.9737 27.2586 64.032C28.278 64.0291 29.2697 64.3179 30.1943 64.732C31.4076 65.2352 32.6546 65.6552 33.9277 65.976C32.4358 63.7301 29.7961 62.2922 27.0938 62.3111C24.4351 62.2849 21.8363 63.6776 20.34 65.8667ZM22.8776 67.3046C24.3651 68.0484 25.8716 68.7557 27.4059 69.4003C27.8492 69.5972 28.3801 69.7678 28.5988 70.2462C28.9751 70.9476 28.5492 71.9189 27.7661 72.0954C27.1886 72.2733 26.6694 71.8883 26.2027 71.6083C24.7939 70.6924 23.4595 69.6672 22.1747 68.5851C21.5723 69.9778 21.6555 71.6404 22.3307 72.9923C22.9636 74.2625 24.1216 75.1769 25.3539 75.8288C28.9036 77.7685 32.8194 78.9979 36.8022 79.6527C39.9479 80.1806 43.1636 80.134 46.321 79.7417C49.6388 79.3202 52.9056 78.3985 55.8967 76.8891C58.1412 75.7705 60.2092 74.318 62.0788 72.651C57.0241 74.0452 51.6441 74.1765 46.5164 73.1002C41.1438 72.0064 36.0978 69.6803 31.4514 66.8161C30.3809 66.224 29.3761 65.4219 28.1336 65.2352C26.1721 64.8604 24.0618 65.7004 22.8776 67.3046ZM19.8617 66.6177C19.0362 68.184 18.695 70.0085 18.9735 71.7629C19.3483 74.4434 21.1553 76.8585 23.6068 77.996C25.1818 78.7558 26.9858 78.9323 28.6994 78.642C26.8998 77.8691 25.0754 77.1049 23.4551 75.9878C22.3715 75.209 21.4688 74.1444 21.0021 72.8844C20.3794 71.251 20.4859 69.3799 21.215 67.799C20.7659 67.4023 20.3211 67.0013 19.8617 66.6177ZM34.0998 67.1092C35.1076 67.6648 36.1372 68.1767 37.1697 68.6828C37.403 68.3605 37.667 68.063 37.9616 67.7975C36.6593 67.6634 35.3803 67.3746 34.0998 67.1092ZM40.6625 67.9128C39.7029 67.9055 38.7447 68.3605 38.1964 69.1582C40.4015 70.1718 42.694 70.9972 45.042 71.6156C45.1952 70.0916 45.6035 68.5617 46.4596 67.274C44.5549 67.6809 42.6094 67.8982 40.6625 67.9128ZM34.9355 83.287C35.6107 83.3643 36.2976 83.5845 36.7803 84.0847C37.8274 85.0852 37.7968 86.9621 36.7103 87.9202C36.0453 88.5269 35.0857 88.6713 34.2238 88.5182C34.5009 89.8307 35.319 90.9551 36.2903 91.8506C37.4628 92.9283 38.8716 93.7523 40.3825 94.2569C41.3275 94.0731 42.1996 93.5554 43.0309 93.0712C44.6862 92.0168 46.2627 90.5103 46.671 88.5153C45.7406 88.7019 44.7022 88.4657 44.046 87.754C43.0455 86.7229 43.1213 84.8518 44.237 83.933C44.7664 83.4693 45.4825 83.2972 46.1723 83.2957C45.901 82.5301 45.6312 81.7615 45.4533 80.9682C42.3499 81.2817 39.2056 81.2292 36.1299 80.6779C35.8076 81.5792 35.4051 82.4513 34.9355 83.287Z" fill="black"/>
<path d="M32.8903 4.01702C33.2826 3.89014 33.6807 3.78076 34.0803 3.66992C33.7785 5.21726 33.4314 6.75731 33.1543 8.30756C33.3541 9.20738 33.6603 10.0795 33.8995 10.9706C33.5524 11.0726 33.2039 11.1762 32.8597 11.287C32.5913 10.501 32.4003 9.69011 32.1597 8.89383C32.0969 8.61528 31.8709 8.42569 31.6871 8.22589C30.8427 7.36691 30.0261 6.48167 29.1787 5.62561C29.0577 5.49144 28.9104 5.36602 28.8535 5.18809C29.205 5.07288 29.5623 4.97955 29.9152 4.86871C30.7246 5.68248 31.5063 6.52397 32.307 7.34649C32.4965 6.23667 32.7168 5.13122 32.8903 4.01702Z" fill="black"/>
<path d="M49.4912 4.61299C50.8285 4.3359 52.319 5.03447 52.879 6.29596C53.5863 7.90018 53.0497 9.92441 51.7313 11.0517C50.8738 11.797 49.5889 11.9413 48.5564 11.4951C47.4539 11.0503 46.7276 9.91128 46.694 8.73583C46.5861 6.97411 47.6464 4.96738 49.4912 4.61299ZM49.6239 5.60907C48.606 5.92991 48.0372 6.98578 47.8622 7.97893C47.693 8.87 47.9132 9.93899 48.7212 10.4553C49.4897 10.989 50.6112 10.7921 51.1931 10.0717C51.9223 9.18793 52.2986 7.9206 51.9282 6.80785C51.6306 5.88324 50.5529 5.31302 49.6239 5.60907Z" fill="black"/>
<path d="M40.1462 5.90714C40.8083 5.63443 41.5871 6.30237 41.4062 6.99947C41.2969 7.6922 40.3504 8.01596 39.8429 7.5274C39.2945 7.09135 39.4754 6.11569 40.1462 5.90714Z" fill="black"/>
<path d="M21.6641 8.45933C23.1691 7.6791 24.6727 6.89741 26.1763 6.11426C26.3207 6.39864 26.465 6.68302 26.608 6.96741C26.0217 7.26638 25.4413 7.57264 24.8594 7.87889C25.7884 9.64645 26.694 11.4271 27.6361 13.1874C27.3109 13.3726 26.9813 13.5491 26.6503 13.7212C25.7198 11.9449 24.7937 10.1656 23.8677 8.38641C23.2814 8.69559 22.6951 9.00476 22.1045 9.30519C21.9572 9.02372 21.8099 8.7408 21.6641 8.45933Z" fill="black"/>
<path d="M54.165 13.5198C55.3361 11.513 56.5218 9.51652 57.7016 7.51562C58.8114 8.16606 59.9198 8.82233 61.0296 9.47423C60.8677 9.7484 60.7044 10.0226 60.5425 10.2968C59.7535 9.82424 58.9587 9.36339 58.1654 8.89671C57.8402 9.44506 57.5237 10.0007 57.1853 10.5432C57.9247 11.0041 58.6918 11.4197 59.4283 11.8878C59.2664 12.1474 59.1104 12.4099 58.9558 12.6724C58.2077 12.2379 57.4624 11.7989 56.7187 11.357C56.1834 12.2626 55.6497 13.1698 55.1159 14.0754C54.8009 13.8858 54.4844 13.6991 54.165 13.5198Z" fill="black"/>
<path d="M17.8447 11.1553C18.1466 10.9395 18.4427 10.7163 18.7431 10.499C20.1271 12.3585 21.5548 14.1829 22.9534 16.0321C22.6588 16.2567 22.3657 16.4813 22.074 16.7088C20.6609 14.8596 19.2331 13.022 17.8447 11.1553Z" fill="black"/>
<path d="M197.082 12.1938C199.208 11.7577 201.577 12.2492 203.197 13.7441C202.889 14.1611 202.545 14.5491 202.228 14.9603C201.298 14.2851 200.209 13.7936 199.052 13.7163C198.052 13.6405 196.959 13.7995 196.172 14.4659C195.411 15.096 195.148 16.2218 195.494 17.1377C195.701 17.6525 196.122 18.0477 196.577 18.3481C198.1 19.3282 199.904 19.7832 201.38 20.8434C202.351 21.5347 203.127 22.5702 203.305 23.7704C203.509 25.1456 203.16 26.6361 202.23 27.692C201.556 28.4737 200.602 28.971 199.605 29.1956C197.304 29.7162 194.792 29.0891 192.974 27.5943C193.278 27.148 193.586 26.7017 193.878 26.2453C195.045 26.9657 196.332 27.5841 197.722 27.6745C198.638 27.7066 199.624 27.5622 200.368 26.9832C201.199 26.3371 201.496 25.1879 201.329 24.1802C201.173 23.3402 200.532 22.6927 199.846 22.2362C198.199 21.1512 196.182 20.6932 194.689 19.3676C193.173 18.0492 193.063 15.5656 194.209 13.9774C194.884 13.0324 195.959 12.4344 197.082 12.1938Z" fill="black"/>
<path d="M260.16 12.1082C261.913 11.8924 263.767 12.2599 265.218 13.2924C267.242 14.6925 268.334 17.1221 268.54 19.5241C268.788 22.2381 268.164 25.1928 266.227 27.2053C264.068 29.4994 260.341 30.0098 257.593 28.5208C255.432 27.3818 254.073 25.0936 253.675 22.7296C253.231 20.068 253.635 17.1455 255.266 14.936C256.412 13.3639 258.231 12.327 260.16 12.1082ZM259.626 13.9239C258.632 14.1835 257.738 14.7843 257.105 15.5908C256.212 16.705 255.783 18.1211 255.64 19.5241C255.487 21.0816 255.626 22.6975 256.238 24.15C256.673 25.1957 257.374 26.148 258.317 26.7882C260.142 28.0672 262.865 27.9024 264.483 26.3493C265.527 25.3649 266.087 23.9721 266.341 22.5823C266.616 20.9474 266.596 19.2309 266.066 17.6486C265.677 16.4863 264.974 15.4042 263.968 14.6866C262.734 13.7897 261.089 13.5447 259.626 13.9239Z" fill="black"/>
<path d="M101.325 12.3559C101.986 12.3545 102.648 12.3632 103.31 12.3457C103.35 16.1492 103.303 19.9526 103.334 23.756C103.338 24.7375 103.558 25.789 104.277 26.5066C105.279 27.5143 106.818 27.7783 108.18 27.5814C109.303 27.4253 110.382 26.7574 110.878 25.7147C111.247 24.9242 111.273 24.0302 111.301 23.1727C111.33 19.5647 111.291 15.9566 111.323 12.3486C111.976 12.3603 112.628 12.3559 113.283 12.3559C113.283 14.8454 113.281 17.3334 113.283 19.8228C113.256 21.4766 113.354 23.1406 113.138 24.7857C112.994 25.9217 112.543 27.0549 111.684 27.8395C110.452 29.012 108.682 29.4189 107.022 29.3562C105.24 29.3081 103.375 28.6052 102.297 27.1264C101.495 26.0384 101.347 24.6384 101.334 23.3273C101.315 19.6697 101.33 16.0135 101.325 12.3559Z" fill="black"/>
<path d="M119.703 12.3553C120.386 12.3553 121.07 12.3538 121.754 12.3582C124.443 16.9229 127.097 21.511 129.816 26.0582C129.827 21.4905 129.785 16.9229 129.778 12.3553C130.392 12.3567 131.009 12.348 131.625 12.3669C131.601 17.9292 131.636 23.4929 131.607 29.0552C130.909 29.0406 130.212 29.0581 129.517 29.0391C126.857 24.4802 124.182 19.9301 121.491 15.3902C121.499 19.9447 121.538 24.5006 121.531 29.0552C120.921 29.0449 120.311 29.0479 119.703 29.0493C119.702 23.4842 119.702 17.9204 119.703 12.3553Z" fill="black"/>
<path d="M138.593 29.0597C138.572 23.4902 138.572 17.9192 138.595 12.3496C139.258 12.3642 139.925 12.3569 140.59 12.3584C140.591 17.9221 140.591 23.4872 140.59 29.051C139.925 29.051 139.258 29.0437 138.593 29.0597Z" fill="black"/>
<path d="M145.026 12.3564C145.723 12.3564 146.422 12.3564 147.119 12.3564C148.747 17.2697 150.364 22.1859 151.996 27.0977C153.66 22.1801 155.334 17.2653 157.014 12.3535C157.659 12.3579 158.306 12.355 158.952 12.3564C156.998 17.9201 155.038 23.4824 153.088 29.0476C152.32 29.0519 151.55 29.0505 150.781 29.049C148.866 23.4839 146.943 17.9216 145.026 12.3564Z" fill="black"/>
<path d="M163.496 12.3613C166.519 12.3482 169.542 12.3729 172.567 12.3496C172.587 12.9082 172.583 13.4682 172.573 14.0267C170.206 14.0165 167.837 14.0267 165.47 14.0209C165.466 15.8585 165.469 17.6946 165.469 19.5307C167.697 19.538 169.926 19.5146 172.155 19.5423C172.139 20.0717 172.139 20.6011 172.157 21.1305C169.929 21.1859 167.699 21.1407 165.469 21.1538C165.463 23.2116 165.478 25.2694 165.463 27.3257C167.901 27.3505 170.34 27.3271 172.78 27.3374C172.777 27.909 172.777 28.4793 172.778 29.0495C169.684 29.048 166.589 29.0568 163.494 29.0451C163.503 23.4843 163.5 17.9235 163.496 12.3613Z" fill="black"/>
<path d="M178.086 29.0388C178.119 23.4751 178.068 17.9099 178.112 12.3447C179.937 12.3797 181.763 12.3229 183.587 12.3958C184.732 12.4556 185.945 12.721 186.8 13.5421C188.181 14.7919 188.548 16.9051 187.95 18.6274C187.447 20.0435 186.036 20.9623 184.59 21.1767C185.589 21.3152 186.276 22.1465 186.673 23.0128C187.618 25.0078 188.486 27.0364 189.39 29.0504C188.699 29.0519 188.009 29.0417 187.319 29.0592C186.52 27.3602 185.817 25.616 185.002 23.9228C184.603 23.1251 184.099 22.2413 183.18 21.9802C182.166 21.7119 181.103 21.8111 180.068 21.7877C180.066 24.2086 180.066 26.6295 180.066 29.049C179.406 29.0475 178.745 29.0577 178.086 29.0388ZM180.068 13.9606C180.066 16.0373 180.066 18.1155 180.068 20.1923C181.335 20.1733 182.627 20.2783 183.87 19.9618C184.66 19.7635 185.404 19.2837 185.814 18.5632C186.41 17.5438 186.374 16.1861 185.735 15.1944C185.196 14.3981 184.217 14.0364 183.288 13.9883C182.216 13.9285 181.14 13.9752 180.068 13.9606Z" fill="black"/>
<path d="M208.901 12.3584C209.571 12.3584 210.24 12.3584 210.911 12.3584C210.912 17.9221 210.912 23.4858 210.911 29.051C210.24 29.051 209.571 29.051 208.901 29.0495C208.901 23.4858 208.901 17.9221 208.901 12.3584Z" fill="black"/>
<path d="M215.402 12.3602C219.378 12.3573 223.352 12.3588 227.327 12.3588C227.326 12.9129 227.326 13.4686 227.327 14.0228C225.678 14.0213 224.029 14.0257 222.381 14.0213C222.375 19.0308 222.379 24.0418 222.378 29.0514C221.714 29.0528 221.051 29.0411 220.39 29.0645C220.339 24.0491 220.397 19.0308 220.361 14.0155C218.708 14.033 217.055 14.0184 215.402 14.0228C215.402 13.4686 215.402 12.9144 215.402 12.3602Z" fill="black"/>
<path d="M229.663 12.3571C230.432 12.3585 231.2 12.3454 231.97 12.3673C233.309 14.9734 234.697 17.5533 236.046 20.155C237.444 17.5883 238.72 14.9545 240.064 12.3571C240.789 12.3542 241.515 12.3556 242.243 12.3571C240.512 15.6559 238.779 18.9533 237.048 22.2507C236.929 22.4461 236.936 22.6766 236.937 22.8968C236.945 24.9473 236.939 26.9977 236.942 29.0482C236.277 29.0482 235.612 29.057 234.95 29.0395C234.953 26.8446 234.985 24.6454 234.934 22.452C233.217 19.0685 231.401 15.7318 229.663 12.3571Z" fill="black"/>
<path d="M274.089 12.3584C277.046 12.3584 280.003 12.3584 282.96 12.3584C282.959 12.9126 282.959 13.4682 282.96 14.0224C280.668 14.0239 278.375 14.0224 276.082 14.0224C276.082 15.8585 276.085 17.6931 276.081 19.5292C278.236 19.5409 280.393 19.5147 282.55 19.5409C282.536 20.0747 282.536 20.6084 282.549 21.1407C280.393 21.1728 278.237 21.1451 276.082 21.1553C276.084 23.7877 276.082 26.4186 276.082 29.051C275.417 29.051 274.752 29.051 274.089 29.051C274.089 23.4858 274.089 17.9221 274.089 12.3584Z" fill="black"/>
<path d="M12.6306 16.6236C12.8159 15.3621 13.9665 14.3748 15.2061 14.21C15.2791 14.5206 15.3389 14.8341 15.3957 15.1477C14.6199 15.2804 13.8163 15.7952 13.6588 16.6134C13.5523 17.1267 14.0788 17.6021 14.5805 17.4694C15.5153 17.2726 16.3393 16.6367 17.3266 16.6702C18.5094 16.679 19.4675 17.939 19.1598 19.0824C18.8346 20.3133 17.6562 21.1723 16.4312 21.3648C16.3568 21.0541 16.2795 20.7435 16.1993 20.4343C16.9445 20.2272 17.8006 19.8889 18.0748 19.0926C18.3227 18.5136 17.8298 17.7728 17.1866 17.8428C16.2139 17.9244 15.3972 18.6128 14.4099 18.6376C13.3759 18.6813 12.4615 17.6459 12.6306 16.6236Z" fill="black"/>
<path d="M62.8537 14.8732C63.4516 14.5465 64.2654 15.0526 64.2333 15.7366C64.264 16.4599 63.3481 16.9572 62.7589 16.5358C62.1406 16.1756 62.1989 15.1605 62.8537 14.8732Z" fill="black"/>
<path d="M68.1453 19.0325C68.8322 18.8473 69.5862 18.8429 70.2512 19.1186C71.6891 19.6873 72.5758 21.4418 72.0508 22.9235C71.5491 24.3512 70.1476 25.3444 68.6878 25.5938C67.5678 25.795 66.3632 25.3065 65.7127 24.3702C65.1367 23.6016 64.931 22.5531 65.246 21.6372C65.6777 20.3407 66.859 19.4015 68.1453 19.0325ZM68.5857 20.0578C67.5109 20.383 66.439 21.1618 66.1779 22.3095C65.9111 23.4325 66.8969 24.6619 68.068 24.5642C69.2099 24.4694 70.3416 23.8204 70.9235 22.8199C71.4281 21.9639 71.1145 20.7767 70.2891 20.2415C69.7903 19.9105 69.1457 19.9017 68.5857 20.0578Z" fill="black"/>
<path d="M31.6925 19.4549C31.7727 19.4462 31.9346 19.4287 32.0163 19.4199C32.7965 20.4758 33.5695 21.5419 34.2855 22.6429C33.9209 22.7304 33.552 22.8004 33.1859 22.8821C33.5943 23.6113 34.1062 24.2763 34.567 24.9734C35.2597 24.4703 35.9131 23.9103 36.5329 23.3211C36.2514 23.1738 35.9597 23.0469 35.687 22.885C35.7177 22.6852 35.916 22.5977 36.0575 22.4854C36.7429 22.0129 37.4254 21.5346 38.1036 21.0504C38.2917 20.9133 38.4973 20.785 38.7409 20.7835C38.2144 22.5481 37.6033 24.2851 37.0433 26.0395C35.3049 25.4474 33.4411 25.4007 31.6225 25.3847C29.9789 25.4357 28.2872 25.4809 26.7238 26.0453C26.1361 24.3026 25.563 22.5554 25.0088 20.801C25.4623 20.7733 25.773 21.1569 26.1361 21.3639C26.8259 21.8787 27.6295 22.2579 28.2347 22.8792C27.9416 23.0163 27.6382 23.1373 27.3728 23.3255C27.9095 23.9351 28.5599 24.4338 29.1593 24.9807C29.6479 24.2938 30.1773 23.623 30.5535 22.8646C30.1919 22.7975 29.8302 22.7377 29.4743 22.6444C30.1627 21.5477 30.9619 20.5239 31.6925 19.4549Z" fill="black"/>
<path d="M47.4058 21.6106C47.9235 20.877 48.4471 20.1478 48.9605 19.4113C49.449 19.3997 49.5948 19.9436 49.8661 20.2513C50.3911 21.071 51.0693 21.7972 51.4937 22.6766C51.1393 22.7393 50.7863 22.7977 50.4349 22.8691C50.8111 23.6158 51.3507 24.2619 51.7955 24.9677C52.5043 24.4865 53.1402 23.9017 53.7716 23.3256C53.4829 23.1681 53.1854 23.0266 52.8879 22.8881C53.1825 22.4841 53.6491 22.2683 54.0385 21.9722C54.6 21.596 55.125 21.1643 55.7084 20.8216C55.7798 20.8201 55.9198 20.8143 55.9898 20.8114C55.4298 22.557 54.8465 24.2954 54.2821 26.0382C52.5787 25.4578 50.7528 25.4067 48.9707 25.3834C47.2848 25.4228 45.5595 25.4825 43.9509 26.0396C43.3822 24.2954 42.8032 22.5556 42.2432 20.8099C42.7565 20.7807 43.1109 21.2401 43.5295 21.4705C44.1638 21.9533 44.9339 22.2799 45.4574 22.891C45.1585 23.0193 44.8624 23.1564 44.5751 23.311C45.1555 23.855 45.7243 24.4179 46.3412 24.9196L46.4491 24.9109C46.9406 24.2838 47.346 23.5969 47.8083 22.9493C47.4875 22.7568 47.1054 22.7466 46.7466 22.6825C46.8808 22.277 47.1667 21.9547 47.4058 21.6106Z" fill="black"/>
<path d="M8.57213 22.0064C8.89444 21.5003 9.39758 21.0497 10.0247 21.0249C11.1724 20.8922 12.4281 21.9539 12.1087 23.1644C12.6527 22.8946 13.2667 23.0185 13.8456 23.0579C14.5106 23.1191 15.1771 23.1658 15.8421 23.2344C15.6307 23.564 15.4396 23.9052 15.2603 24.2538C14.3415 24.2071 13.4256 24.0321 12.5039 24.0686C11.9177 24.105 11.6945 24.7234 11.4451 25.158C12.2997 25.6115 13.1441 26.0826 13.9944 26.5463C13.8194 26.8686 13.6415 27.1895 13.4562 27.5059C11.4218 26.3874 9.38008 25.2805 7.33105 24.1867C7.73503 23.4546 8.1215 22.7108 8.57213 22.0064ZM9.593 22.282C9.17444 22.6554 8.9586 23.1921 8.66401 23.6573C9.31737 24.016 9.97364 24.369 10.6314 24.7204C10.888 24.2304 11.222 23.7433 11.2453 23.1716C11.2614 22.3943 10.2289 21.7891 9.593 22.282Z" fill="black"/>
<path d="M74.5828 25.9951C74.7287 26.386 74.8599 26.7812 74.9941 27.1749C74.402 27.9246 73.7005 28.5852 73.1478 29.3654C74.0768 29.5608 75.0043 29.7665 75.9275 29.9969C76.0354 30.3702 76.1579 30.7407 76.2789 31.1111C75.0029 30.7946 73.7239 30.4884 72.4449 30.1865C71.545 31.273 70.6234 32.342 69.7396 33.4431C69.5792 33.0522 69.4464 32.6512 69.3371 32.2457C70.0342 31.4684 70.7065 30.6707 71.3773 29.8715C70.3754 29.6163 69.3531 29.4383 68.357 29.1642C68.1339 28.8346 68.0843 28.4014 67.9385 28.031C69.3283 28.3416 70.7036 28.7237 72.0992 29.0067C72.8984 27.98 73.7749 27.0145 74.5828 25.9951Z" fill="black"/>
<path d="M28.9722 26.7227C30.6902 26.4893 32.4344 26.4835 34.1582 26.6454C34.9195 26.7402 35.7041 26.8204 36.407 27.1471C36.6258 27.2127 36.8226 27.5233 36.5543 27.6677C36.0935 27.974 35.5247 28.0513 34.9909 28.1548C33.2452 28.4173 31.4646 28.4304 29.7072 28.2744C28.9372 28.1913 28.1511 28.1038 27.4321 27.8033C27.2367 27.7377 27.1244 27.5583 26.9961 27.4125C27.5299 26.9181 28.2882 26.8452 28.9722 26.7227Z" fill="black"/>
<path d="M44.5315 27.1772C45.2796 26.8039 46.1342 26.7324 46.9524 26.6318C48.8395 26.4758 50.7587 26.4801 52.6269 26.8272C53.1155 26.9541 53.7338 27.0153 53.9934 27.517C53.4042 27.9998 52.6226 28.0887 51.8977 28.2039C49.9581 28.4416 47.9835 28.4402 46.0482 28.1616C45.4838 28.0464 44.8582 27.9866 44.3886 27.6206C44.1917 27.4849 44.374 27.2443 44.5315 27.1772Z" fill="black"/>
<path d="M4.64355 32.0444C5.02565 30.7581 5.41504 29.4733 5.78692 28.1855C6.0961 28.2628 6.40528 28.3445 6.71299 28.4291C6.43153 29.3625 6.14714 30.2944 5.86422 31.2263C6.4884 31.3852 7.10675 31.5617 7.72802 31.7338C7.97886 30.8865 8.17137 30.0216 8.47471 29.1933C8.76201 29.2837 9.04931 29.3712 9.33807 29.4587C9.10036 30.3002 8.86118 31.1402 8.62493 31.9817C9.32786 32.164 10.0279 32.3653 10.7294 32.5563C10.9817 31.6404 11.2515 30.7304 11.4994 29.8131C11.8129 29.8918 12.125 29.9764 12.4386 30.0596C12.0973 31.3415 11.7356 32.6161 11.3856 33.8951C9.14119 33.2665 6.88946 32.6671 4.64355 32.0444Z" fill="black"/>
<path d="M27.3975 31.1592C30.024 31.1592 32.6505 31.1606 35.2771 31.1592C36.3315 31.1781 37.4646 31.1577 38.3995 31.7192C39.4714 32.3536 39.9278 33.6486 39.9337 34.8401C39.9497 39.6557 39.9322 44.4713 39.9424 49.2854C39.9453 49.5887 39.9308 49.892 39.8885 50.1925C39.591 49.7491 39.6887 49.1439 39.3226 48.7283C38.697 47.8868 37.5463 47.8095 36.5852 47.7803C33.5241 47.7716 30.463 47.773 27.4033 47.7789C27.3916 42.2399 27.4018 36.6996 27.3975 31.1592ZM28.4096 33.7974C28.4825 33.8776 28.6269 34.0395 28.6983 34.1197C28.745 34.6549 28.7319 35.196 28.7115 35.7341C28.7435 35.9587 28.4825 36.0331 28.3658 36.1731C29.0352 36.1512 29.779 36.2927 30.3784 35.9164C31.0726 35.5051 31.1047 34.2918 30.3303 33.9476C29.7236 33.7011 29.0469 33.8207 28.4096 33.7974ZM31.9491 33.8543C31.0609 34.2189 30.9734 35.6583 31.8484 36.09C32.636 36.5406 33.7458 35.9193 33.686 34.9903C33.7749 34.0905 32.7322 33.4561 31.9491 33.8543ZM33.9062 33.8003C34.0243 33.9403 34.3029 34.0118 34.2606 34.2436C34.2635 34.7322 34.2314 35.2208 34.176 35.7064C34.1848 35.9281 33.9704 36.0345 33.842 36.1789C34.1804 36.1818 34.5231 36.192 34.8571 36.1206C34.7652 36.0681 34.58 35.9631 34.4866 35.9106C34.4327 35.4483 34.4691 34.9816 34.4852 34.5178C34.7769 35.0326 34.9227 35.6131 35.1808 36.1439C35.2246 36.1381 35.3121 36.1279 35.3558 36.1235C35.6271 35.546 35.7846 34.9218 36.0836 34.3574C36.0967 34.8766 36.0938 35.3972 36.0865 35.9179C35.999 35.9806 35.8254 36.1031 35.7379 36.1643C36.1623 36.1789 36.5852 36.1775 37.0096 36.176C36.9338 36.0943 36.7807 35.931 36.7034 35.8493C36.6509 35.2733 36.6348 34.6914 36.6523 34.1124C36.7325 34.0322 36.893 33.8732 36.9746 33.793C36.6596 33.7945 36.3461 33.7959 36.0325 33.7945C35.8473 34.2757 35.6606 34.757 35.4798 35.2397C35.2537 34.7614 35.0408 34.2772 34.8308 33.793C34.5216 33.7945 34.2139 33.7959 33.9062 33.8003ZM37.1569 33.8003C37.6192 34.0307 37.4705 34.5645 37.4967 34.9801C37.4705 35.4001 37.6192 35.9281 37.1642 36.1745C37.5901 36.176 38.0159 36.176 38.4418 36.1789C38.3659 36.0972 38.2143 35.9354 38.137 35.8552C38.0932 35.2762 38.099 34.6914 38.134 34.1124C38.2113 34.0424 38.3674 33.9009 38.4461 33.8295C38.0174 33.7828 37.5857 33.7857 37.1569 33.8003ZM29.8869 38.19C30.0167 38.3359 30.2821 38.4088 30.2938 38.6319C30.3448 39.1861 30.3098 39.7432 30.2807 40.2974C30.199 40.363 30.0327 40.4928 29.9511 40.5584C30.2953 40.5803 30.6409 40.5788 30.9836 40.5307C30.2486 40.3324 30.6249 39.4398 30.5344 38.8959C31.0172 39.4282 31.4313 40.0188 31.882 40.5788C31.9578 40.5934 32.108 40.6226 32.1824 40.6357C32.2714 39.8949 32.1255 39.135 32.2889 38.4059L32.6141 38.3052C32.2889 38.1171 31.9053 38.1988 31.5495 38.1959C32.2028 38.4234 31.9418 39.17 31.9957 39.6936C31.5626 39.2094 31.1717 38.6902 30.7619 38.1886C30.4703 38.19 30.1786 38.1886 29.8869 38.19ZM32.6899 38.3534C33.3054 38.9498 33.2543 40.0028 33.8056 40.6197L33.9675 40.5818C34.4006 39.803 34.4487 38.7719 35.1794 38.19C34.8483 38.19 34.5158 38.19 34.1848 38.1886C34.2635 38.2586 34.4196 38.3986 34.4983 38.4686C34.3816 38.9017 34.2227 39.3217 34.0681 39.7432C33.8406 39.3217 33.6889 38.8652 33.527 38.4175C33.6131 38.3636 33.7881 38.2556 33.8741 38.2002C33.4483 38.19 33.0224 38.19 32.598 38.174C32.6199 38.2177 32.6666 38.3081 32.6899 38.3534ZM35.6081 38.2731C35.2567 38.4744 35.1517 39.0286 35.4594 39.313C35.7058 39.5215 36.0179 39.6324 36.2644 39.8409C36.4336 40.064 36.3038 40.4388 36.0033 40.4432C35.6154 40.4097 35.4871 39.978 35.1969 39.7811C35.2231 40.0232 35.2669 40.2624 35.3121 40.5015C35.6723 40.6007 36.0748 40.6999 36.4292 40.522C36.8215 40.3601 36.9892 39.8351 36.769 39.4763C36.5357 39.135 36.0617 39.0855 35.8094 38.7705C35.6621 38.5007 36.0165 38.209 36.2644 38.3621C36.4496 38.5138 36.5867 38.715 36.7471 38.8915C36.7282 38.6655 36.7077 38.4394 36.6859 38.2134C36.33 38.1565 35.9333 38.0631 35.6081 38.2731ZM29.5894 42.6104C29.6784 42.6672 29.8563 42.781 29.9452 42.8379C29.9686 43.4577 29.9657 44.0789 29.9496 44.6988C29.8286 44.7775 29.709 44.8563 29.5894 44.935C30.0284 44.9729 30.4673 44.9686 30.9078 44.9671C30.8071 44.849 30.6686 44.7586 30.6015 44.6171C30.5563 44.0294 30.5884 43.4402 30.5942 42.8525C30.7094 42.7635 30.8247 42.6745 30.9399 42.5827C30.4892 42.5783 30.0386 42.5768 29.5894 42.6104ZM31.0449 42.5987C31.1586 42.6731 31.2709 42.7475 31.3861 42.8218C31.4109 43.4431 31.4474 44.0702 31.3803 44.6886C31.2942 44.7498 31.1222 44.8708 31.0361 44.9306C31.6588 44.9963 32.2845 44.9511 32.9087 44.9759C32.9655 44.7352 33.0137 44.4946 33.0545 44.251C32.8008 44.5865 32.512 44.8854 32.0497 44.7586C32.0366 44.1723 32.0089 43.5831 32.0482 42.9968C32.0424 42.7868 32.2728 42.7037 32.3909 42.571C31.9418 42.5841 31.4926 42.5797 31.0449 42.5987ZM33.0968 42.5943C33.212 42.6789 33.3272 42.7649 33.4424 42.851C33.4497 43.4431 33.4804 44.0367 33.4381 44.6288C33.3535 44.7104 33.1828 44.8767 33.0983 44.9598C33.7224 44.9671 34.3466 44.9671 34.9723 44.9642C35.016 44.7279 35.0569 44.4902 35.0919 44.254C34.841 44.585 34.5566 44.8781 34.1002 44.7731C34.0812 44.1839 34.055 43.5933 34.0929 43.0056C34.0827 42.7927 34.3131 42.7052 34.4327 42.571C33.9864 42.5841 33.5416 42.5827 33.0968 42.5943ZM34.6616 42.5754C34.8089 42.7183 35 42.8364 35.0758 43.0406C35.3442 43.675 35.5702 44.3283 35.8181 44.9729C35.8867 44.9831 36.0267 45.0065 36.0952 45.0167C36.3723 44.356 36.5969 43.6721 36.9003 43.0231C36.9863 42.8277 37.1788 42.7154 37.329 42.5754C36.9834 42.5841 36.6377 42.5827 36.2921 42.5812C36.3825 42.6468 36.5604 42.7752 36.6509 42.8408C36.4977 43.2885 36.3475 43.7377 36.1959 44.1854C36.0033 43.7421 35.8356 43.2885 35.6606 42.8379C35.7423 42.7737 35.9056 42.6439 35.9873 42.5797C35.544 42.5827 35.1021 42.587 34.6616 42.5754Z" fill="black"/>
<path d="M42.2989 31.9569C43.1375 31.2496 44.2911 31.1869 45.3382 31.1636C48.1222 31.1548 50.9063 31.1621 53.6903 31.1607C53.6961 36.6952 53.6801 42.2297 53.6976 47.7628C51.0069 47.792 48.3162 47.7672 45.624 47.776C44.59 47.7905 43.5064 47.7001 42.525 48.0953C41.9081 48.3389 41.4516 48.9237 41.3641 49.5814C41.2868 49.7593 41.3626 50.0539 41.1395 50.1371C41.103 49.9504 41.0855 49.7637 41.087 49.5741C41.0957 44.7134 41.0855 39.8526 41.0914 34.9918C41.0855 33.8834 41.4035 32.6788 42.2989 31.9569ZM42.6577 33.7974C42.7816 33.8937 42.8968 33.9987 43.0033 34.1139C43.0237 34.6433 42.98 35.1726 42.9246 35.6991C42.9348 35.9193 42.7248 36.0302 42.5979 36.1775C42.91 36.176 43.2206 36.176 43.5327 36.1789L43.54 36.0739C43.4627 36.0316 43.3081 35.9441 43.2308 35.9018C43.1827 35.4395 43.2162 34.9743 43.2381 34.5135C43.521 35.0297 43.6698 35.6029 43.9235 36.1323C43.9673 36.1323 44.0563 36.1293 44.1 36.1279C44.3698 35.5489 44.5346 34.9247 44.8307 34.3574C44.8423 34.8781 44.8423 35.3987 44.8321 35.9193C44.7461 35.9806 44.5754 36.1046 44.4894 36.1658C44.9138 36.1775 45.3382 36.1775 45.7626 36.176C45.6853 36.0943 45.5292 35.931 45.4519 35.8493C45.398 35.2689 45.3863 34.6841 45.3965 34.1022C45.4826 34.0264 45.6546 33.8732 45.7407 33.7974C45.4198 33.7959 45.1005 33.7959 44.7796 33.7945C44.5988 34.2626 44.4209 34.7322 44.2429 35.2018C43.9775 34.7585 43.7879 34.2772 43.591 33.8018C43.2789 33.7945 42.9683 33.7959 42.6577 33.7974ZM45.9259 33.7959C45.9988 33.8805 46.1461 34.0497 46.219 34.1357C46.2555 34.7045 46.2569 35.2806 46.2176 35.8508C46.1388 35.931 45.9799 36.0929 45.9011 36.1746C46.3357 36.176 46.7703 36.1746 47.2063 36.1775C47.1261 36.0973 46.9657 35.9383 46.8855 35.8581C46.8418 35.282 46.8447 34.7001 46.8826 34.1241C46.9628 34.0409 47.1218 33.8776 47.2005 33.7945C46.7761 33.7945 46.3503 33.7945 45.9259 33.7959ZM47.2632 33.8047C47.4047 33.9024 47.5359 34.0132 47.6555 34.1372C47.7197 34.6126 47.6949 35.0954 47.6803 35.5737C47.7182 35.842 47.5637 36.0316 47.3259 36.1381C47.6818 36.1993 48.0464 36.1964 48.3978 36.1118C48.2885 36.0725 48.0697 35.9937 47.9589 35.9529C47.9049 35.476 47.8991 34.9947 47.921 34.5149C48.2578 34.8824 48.5554 35.2849 48.8602 35.6816C49.0556 35.9223 49.2262 36.2504 49.585 36.2416C49.601 35.5737 49.5602 34.9043 49.6127 34.2378C49.5937 34.0103 49.8475 33.9359 49.9729 33.7959C49.62 33.7945 49.2685 33.7959 48.9185 33.8032C49.0541 33.8966 49.1868 33.9943 49.3181 34.0964C49.3852 34.496 49.3604 34.9058 49.372 35.3097C48.9433 34.8124 48.5466 34.2874 48.1222 33.7857C47.8349 33.793 47.5491 33.7974 47.2632 33.8047ZM49.7993 36.176C50.1304 36.1775 50.4615 36.1731 50.7925 36.1629C50.705 36.1075 50.53 35.9937 50.441 35.9368C50.4921 35.7779 50.5431 35.6189 50.5927 35.4599C50.791 35.4556 50.9894 35.4527 51.1877 35.4483C51.2446 35.616 51.2986 35.7837 51.3554 35.9529C51.2796 36.0054 51.1265 36.1104 51.0492 36.1629C51.4765 36.1804 51.9052 36.1775 52.334 36.1731C52.1882 36.0273 51.9942 35.915 51.9257 35.7108C51.6544 35.0676 51.4736 34.391 51.1921 33.7522L51.0186 33.7668C50.5052 34.5091 50.5256 35.5766 49.7993 36.176ZM44.2969 38.1098C44.2896 38.3811 44.2838 38.6523 44.2823 38.9236C44.4456 38.6305 44.6411 38.3548 45.0086 38.3417C45.0261 38.9965 45.0261 39.6528 45.0042 40.3076C44.9079 40.3674 44.7154 40.4884 44.6192 40.5497C45.1019 40.5818 45.5861 40.5818 46.0688 40.5468C45.9667 40.487 45.7611 40.3703 45.6576 40.312C45.6357 39.6542 45.6342 38.9965 45.6561 38.3402C46.0163 38.3475 46.2059 38.6407 46.3882 38.9076C46.3897 38.6509 46.3794 38.3942 46.359 38.1375C45.6751 38.1944 44.975 38.2527 44.2969 38.1098ZM46.5822 38.1988C46.6988 38.2907 46.817 38.3825 46.9366 38.473C46.9249 39.068 46.973 39.6645 46.9132 40.258C46.8374 40.3353 46.6857 40.4884 46.6099 40.5657C47.043 40.573 47.4762 40.5759 47.9107 40.5541C47.8262 40.4914 47.657 40.363 47.5724 40.2988C47.5637 39.7388 47.5403 39.1774 47.5724 38.6188C47.5476 38.403 47.7897 38.3257 47.902 38.1871C47.4616 38.1886 47.0211 38.1857 46.5822 38.1988ZM48.7566 38.3038C48.1149 38.6698 47.9516 39.6338 48.4212 40.1997C48.847 40.7262 49.7177 40.7626 50.2135 40.3149C50.7327 39.8351 50.7458 38.8973 50.2106 38.4248C49.8198 38.0763 49.2043 38.0573 48.7566 38.3038ZM43.7019 42.5783C43.89 42.73 44.1423 42.8743 44.0621 43.1616C43.995 43.7683 44.151 44.4829 43.7077 44.9744C44.0242 44.9671 44.3494 44.9963 44.6571 44.9015C43.9717 44.7484 44.345 43.8821 44.3042 43.395C44.6338 43.8981 44.7432 44.5063 45.0407 45.0269C45.4388 44.4406 45.5817 43.7304 45.8763 43.0931C45.7946 43.7085 46.1622 44.5223 45.5861 44.9671C46.0017 44.9671 46.4159 44.9642 46.8301 44.9584C46.7543 44.8927 46.6011 44.7644 46.5253 44.7002C46.4232 44.0906 46.4655 43.465 46.4407 42.8481C46.5661 42.7591 46.6915 42.6702 46.8184 42.5827C46.4859 42.5827 46.1549 42.5841 45.8238 42.5914C45.6473 43.0698 45.4621 43.5452 45.2857 44.0221C45.0436 43.5496 44.8467 43.0566 44.6206 42.5768C44.3144 42.5827 44.0081 42.5827 43.7019 42.5783ZM46.9453 42.5812C47.0284 42.6512 47.1947 42.7883 47.2793 42.8583C47.2866 43.4489 47.3186 44.041 47.272 44.6317C47.1786 44.7119 46.9934 44.8723 46.9001 44.9525C47.5534 44.9715 48.2083 44.97 48.8631 44.9598C48.9024 44.7177 48.9389 44.4756 48.9695 44.235C48.8149 44.3954 48.6808 44.5733 48.5262 44.7323C48.3293 44.7586 48.131 44.7717 47.9341 44.7702C47.918 44.445 47.9122 44.1183 47.9122 43.7917C48.2301 43.7844 48.4474 43.9827 48.6108 44.2292C48.6195 43.9083 48.6239 43.5875 48.6181 43.2681C48.4372 43.4869 48.2141 43.6415 47.9195 43.6517C47.9122 43.36 47.9108 43.0698 47.9078 42.781C48.3133 42.6862 48.5758 42.9429 48.7785 43.2564C48.7756 43.0348 48.7726 42.8145 48.7712 42.5958C48.1616 42.5768 47.5534 42.5841 46.9453 42.5812ZM48.9564 44.9627C49.267 44.9657 49.5777 44.9657 49.8883 44.9613C49.7891 44.8723 49.69 44.7863 49.5893 44.7017C49.6389 44.5471 49.6871 44.3954 49.7381 44.2423C49.9394 44.2438 50.1435 44.2452 50.3462 44.2467C50.4658 44.5004 50.4819 44.7586 50.285 44.9788C50.6831 44.9671 51.0827 44.9627 51.4823 44.9467C51.3146 44.8038 51.109 44.6798 51.0463 44.4538C50.7808 43.796 50.5781 43.1135 50.2981 42.4616C49.5893 43.1266 49.7235 44.3254 48.9564 44.9627Z" fill="black"/>
<path d="M21.5796 32.2544C21.9588 31.7046 22.8907 31.6871 23.2422 32.2734C23.477 32.7634 24.0764 32.7517 24.5212 32.9195C24.5197 32.7882 24.5183 32.5272 24.5168 32.3959C24.8989 32.3944 25.2825 32.3944 25.666 32.3944C25.6704 38.2469 25.6645 44.1008 25.6689 49.9548C29.9011 49.9504 34.1333 49.9548 38.3656 49.9533C38.5595 50.4477 38.8104 50.9946 39.3558 51.1783C40.0981 51.4306 40.9381 51.4307 41.6819 51.1842C42.2361 51.0077 42.4986 50.455 42.6926 49.9533C46.9379 49.946 51.1847 49.9664 55.43 49.9431C55.4155 44.0935 55.4271 38.244 55.4242 32.3944C55.8063 32.3944 56.1884 32.3944 56.5705 32.393C56.5749 38.629 56.5719 44.865 56.5719 51.1011C52.1808 51.104 47.7896 51.0952 43.3984 51.104C42.6882 52.3596 41.0971 52.6717 39.7744 52.4559C38.9037 52.3582 38.1089 51.8521 37.6553 51.1025C33.2787 51.1011 28.9036 51.0938 24.527 51.1069C24.5168 50.6898 24.5183 50.2742 24.5183 49.8571C24.1668 50 23.8168 50.1487 23.4755 50.3135C23.3122 50.824 22.8382 51.2702 22.268 51.1638C21.5461 51.0879 21.1173 50.1735 21.533 49.5741C21.8363 49.0579 22.5217 48.982 23.022 49.2402C23.5236 49.0316 24.0253 48.8187 24.5212 48.5956C24.5183 48.1391 24.5183 47.6841 24.5183 47.2305C24.1785 47.3326 23.8401 47.4361 23.5047 47.5484C23.2961 48.0122 22.8251 48.406 22.2869 48.282C21.5344 48.1814 21.1552 47.1751 21.6569 46.6034C22.0084 46.128 22.6997 46.1207 23.162 46.4372C23.6155 46.3074 24.0647 46.1688 24.5168 46.0332C24.5197 45.5621 24.5183 45.0911 24.5197 44.62C24.1741 44.6769 23.8284 44.7338 23.4843 44.795C23.2276 45.1859 22.7915 45.5271 22.2942 45.4046C21.5403 45.2953 21.1771 44.2831 21.6846 43.7173C22.0755 43.2069 22.8368 43.2564 23.2874 43.656C23.6987 43.5919 24.1085 43.5204 24.5183 43.4489C24.5183 42.9691 24.5183 42.4879 24.5197 42.0081C24.158 42.0197 23.7978 42.0329 23.4376 42.0504C23.0541 42.5798 22.2184 42.7445 21.7561 42.2254C21.1859 41.6814 21.5213 40.608 22.2986 40.4841C22.7347 40.3601 23.0949 40.6634 23.4332 40.8851C23.7949 40.9012 24.1566 40.8691 24.5183 40.8574C24.5183 40.3368 24.5183 39.8176 24.5212 39.2984C24.1362 39.2765 23.7512 39.259 23.3661 39.2488C23.0774 39.5215 22.6982 39.7636 22.2811 39.6528C21.6044 39.539 21.218 38.683 21.5913 38.104C21.8917 37.5411 22.7376 37.4054 23.1838 37.8736C23.5222 38.2498 24.072 38.0807 24.5183 38.1434C24.5183 37.6636 24.5183 37.1852 24.5197 36.7083C24.0968 36.6296 23.6768 36.5494 23.2524 36.4852C22.9374 36.7112 22.5407 36.8979 22.1513 36.7477C21.5169 36.5669 21.2165 35.7298 21.5957 35.1902C21.9282 34.6301 22.8207 34.5339 23.2291 35.0589C23.5076 35.5022 24.0735 35.4279 24.5197 35.5343C24.5183 35.0633 24.5183 34.5922 24.5168 34.1197C24.0618 33.9928 23.6184 33.8251 23.1576 33.723C22.8032 33.8003 22.4459 34.0322 22.0755 33.8674C21.425 33.6676 21.1509 32.7853 21.5796 32.2544Z" fill="black"/>
<path d="M29.353 33.9721C30.3111 33.8817 30.4657 35.2336 29.9699 35.8067C29.8386 35.9759 29.4215 36.1057 29.3734 35.8082C29.3092 35.1986 29.3544 34.5832 29.353 33.9721Z" fill="black"/>
<path d="M32.2404 33.9847C32.6093 33.7747 32.9039 34.2341 32.9492 34.5506C33.0162 35.0129 33.0935 35.605 32.7421 35.9725C32.3585 36.219 32.0202 35.7552 31.9677 35.414C31.8845 34.9444 31.8262 34.3187 32.2404 33.9847Z" fill="black"/>
<path d="M50.6406 35.225C50.7252 34.999 50.8127 34.7759 50.9031 34.5527C50.9761 34.7846 51.0504 35.018 51.1248 35.2513C50.9629 35.2425 50.801 35.2338 50.6406 35.225Z" fill="black"/>
<path d="M70.0723 35.8706C72.3911 35.6897 74.707 35.4753 77.0287 35.3105C77.1046 36.591 77.2329 37.8685 77.3292 39.1475C77.0112 39.1738 76.6948 39.1986 76.3783 39.2248C76.3039 38.3104 76.2266 37.396 76.1581 36.4802C75.5222 36.5254 74.8878 36.591 74.2505 36.6158C74.2826 37.4864 74.3832 38.3527 74.4445 39.2205C74.1324 39.2438 73.8218 39.27 73.5126 39.2919C73.4484 38.43 73.374 37.5696 73.304 36.7091C72.2555 36.8039 71.2069 36.8841 70.1569 36.9614C70.1291 36.5968 70.1014 36.2337 70.0723 35.8706Z" fill="black"/>
<path d="M3.95209 35.4355C6.24758 36.3529 8.53431 37.2935 10.8269 38.2196C10.8138 38.6031 10.7977 38.9867 10.7802 39.3717C8.42931 40.0805 6.07549 40.7805 3.72021 41.4761C3.72167 41.0941 3.72313 40.712 3.71875 40.3313C5.60589 39.7873 7.50178 39.2755 9.38892 38.7329C7.60241 37.9381 5.74152 37.3139 3.92584 36.5833C3.93459 36.2012 3.94334 35.8176 3.95209 35.4355Z" fill="black"/>
<path d="M49.168 38.3704C49.3882 38.2449 49.642 38.3995 49.7441 38.6037C49.9555 39.0135 49.9512 39.5021 49.8797 39.9483C49.8505 40.1933 49.6843 40.4529 49.4072 40.4442C48.9989 40.3479 48.8778 39.8827 48.8413 39.521C48.8166 39.1258 48.8166 38.63 49.168 38.3704Z" fill="black"/>
<path d="M72.0802 42.2134C73.7792 41.7715 75.9011 42.4 76.7032 44.0567C77.3099 45.3489 76.9132 47.0595 75.7276 47.8835C74.1554 48.9365 71.8395 48.6025 70.5372 47.2608C69.7234 46.3931 69.5674 45.0382 70.018 43.9605C70.3782 43.0942 71.176 42.4409 72.0802 42.2134ZM72.5381 43.2576C71.5858 43.3815 70.7414 44.1953 70.756 45.1855C70.6816 46.1131 71.4706 46.835 72.2843 47.1135C73.1944 47.4475 74.2896 47.5189 75.1398 46.9895C76.0499 46.4383 76.3109 45.0543 75.6182 44.2318C74.8861 43.3553 73.6246 43.1015 72.5381 43.2576Z" fill="black"/>
<path d="M49.7861 44.0378C49.8663 43.7972 49.9509 43.5595 50.0355 43.3203C50.1114 43.5537 50.1886 43.787 50.2689 44.0203C50.1478 44.0247 49.9072 44.0335 49.7861 44.0378Z" fill="black"/>
<path d="M114.545 43.8471C119.669 43.3133 125.046 44.8023 128.957 48.2076C131.202 50.1342 132.941 52.644 133.961 55.4222C135.88 60.6739 135.307 66.8005 132.373 71.5708C130.315 74.9485 127.077 77.5648 123.373 78.9386C117.512 81.1203 110.561 80.3474 105.451 76.6868C101.963 74.2222 99.4425 70.4377 98.5165 66.2682C97.2987 60.8562 98.5106 54.8695 102.022 50.5294C105.053 46.7099 109.708 44.3079 114.545 43.8471ZM114.976 45.6044C113.039 45.8378 111.164 46.5874 109.626 47.792C107.697 49.2883 106.319 51.3971 105.425 53.6474C104.2 56.745 103.797 60.1226 103.971 63.436C104.117 66.2215 104.675 69.0216 105.905 71.5417C106.94 73.6753 108.517 75.5887 110.571 76.8064C112.814 78.1613 115.531 78.6017 118.114 78.294C120.127 78.0592 122.081 77.2702 123.655 75.9868C125.556 74.457 126.904 72.3321 127.773 70.0716C129.005 66.8545 129.366 63.3514 129.123 59.9315C128.921 57.1285 128.285 54.3168 126.953 51.8259C125.838 49.7389 124.169 47.9028 122.055 46.8032C119.901 45.6584 117.382 45.3157 114.976 45.6044Z" fill="black"/>
<path d="M227.432 43.8613C232.665 43.2794 238.179 44.818 242.134 48.3473C244.255 50.2125 245.907 52.5999 246.911 55.2396C249 60.7595 248.303 67.2858 244.994 72.1888C242.61 75.7531 238.882 78.3621 234.748 79.4661C229.026 81.0208 222.551 79.9168 217.857 76.2315C214.192 73.4051 211.759 69.0679 211.221 64.474C210.555 59.1991 212.136 53.6047 215.773 49.6759C218.758 46.3741 223.016 44.3163 227.432 43.8613ZM228.004 45.6026C226.374 45.801 224.783 46.3522 223.406 47.252C221.396 48.5427 219.89 50.5028 218.881 52.6466C217.578 55.4175 217.012 58.4918 216.958 61.5398C216.918 64.7059 217.351 67.9245 218.608 70.8501C219.572 73.0989 221.087 75.161 223.142 76.5231C225.096 77.8386 227.476 78.4365 229.82 78.384C232.073 78.3578 234.339 77.6913 236.175 76.3642C238.252 74.8839 239.735 72.6964 240.683 70.3527C241.99 67.1064 242.384 63.545 242.155 60.0683C241.964 57.2157 241.326 54.35 239.967 51.8168C238.866 49.759 237.23 47.9491 235.156 46.8452C232.986 45.6712 230.437 45.3109 228.004 45.6026Z" fill="black"/>
<path d="M4.13184 44.8905C6.4317 44.5653 8.72718 44.208 11.0256 43.8799C11.0781 44.2445 11.1306 44.6091 11.1831 44.9737C8.88761 45.3193 6.59212 45.6649 4.29372 45.9931C4.23976 45.6256 4.1858 45.2566 4.13184 44.8905Z" fill="black"/>
<path d="M136.74 44.3239C141.898 44.3253 147.056 44.3224 152.216 44.3254C152.213 44.7527 152.213 45.18 152.212 45.6073C151.102 45.8362 149.992 46.0681 148.881 46.2869C148.601 46.3583 148.268 46.4021 148.093 46.6588C148.025 46.9913 148.264 47.2698 148.429 47.5309C151.101 51.3416 153.756 55.1626 156.431 58.9718C156.532 59.2402 156.775 59.0943 156.866 58.9077C159.609 55.0736 162.359 51.2453 165.097 47.4084C165.328 47.1502 165.452 46.6763 165.018 46.5523C163.848 46.1469 162.62 45.9208 161.423 45.6058C161.42 45.1785 161.42 44.7512 161.42 44.3239C165.566 44.3224 169.712 44.3239 173.86 44.3239C173.859 44.7527 173.859 45.1814 173.856 45.6116C172.464 45.9966 171.026 46.2256 169.67 46.7273C168.486 47.1663 167.745 48.228 167.004 49.1832C163.934 53.0494 160.863 56.9141 157.797 60.7831C161.452 65.59 165.098 70.4026 168.75 75.2123C169.339 76.0684 170.058 76.8924 171.063 77.257C172.26 77.6945 173.519 77.9322 174.741 78.2895C174.741 78.7124 174.741 79.1368 174.748 79.5612C169.588 79.5787 164.427 79.5627 159.269 79.5685C159.267 79.1441 159.267 78.7197 159.265 78.2968C160.564 77.992 161.898 77.8228 163.179 77.4451C163.635 77.2963 163.396 76.7801 163.189 76.5176C160.654 72.9343 158.108 69.3599 155.568 65.781C155.136 65.1918 154.745 64.572 154.273 64.0149C151.541 67.6681 148.914 71.4045 146.224 75.0898C145.824 75.6834 145.334 76.2201 145.007 76.8574C144.869 77.2366 145.355 77.378 145.621 77.4699C146.705 77.7645 147.803 77.9993 148.888 78.291C148.89 78.7183 148.89 79.147 148.872 79.5743C144.732 79.5627 140.593 79.567 136.454 79.5714C136.448 79.1441 136.448 78.7168 136.451 78.2895C137.622 78.0022 138.795 77.7207 139.959 77.4043C140.889 77.1505 141.755 76.6386 142.369 75.8861C145.952 71.4176 149.505 66.9215 153.096 62.4588C149.808 58.0501 146.479 53.6735 143.174 49.2765C142.441 48.3271 141.79 47.2071 140.628 46.7273C139.377 46.2212 138.038 45.9748 136.743 45.6058C136.738 45.1785 136.738 44.7512 136.74 44.3239Z" fill="black"/>
<path d="M179.538 44.327C188.418 44.3197 197.298 44.3255 206.18 44.3241C206.178 47.2642 206.178 50.2028 206.18 53.1414C205.687 53.1429 205.197 53.1429 204.707 53.1414C204.148 51.3549 203.585 49.5699 203.025 47.7848C202.85 47.2408 202.621 46.6662 202.14 46.3221C201.708 46.0143 201.156 45.991 200.645 45.9939C197.036 46.0056 193.425 45.9823 189.815 46.0056C189.83 51.0589 189.817 56.1107 189.821 61.1625C192.362 61.164 194.902 61.1625 197.444 61.164C198.179 61.1494 198.99 61.2544 199.645 60.8373C200.214 60.4756 200.475 59.8164 200.655 59.1966C200.93 58.2545 201.201 57.3109 201.479 56.3688C201.964 56.3717 202.449 56.3717 202.936 56.3615C202.965 60.2787 202.939 64.1959 202.949 68.1131C202.459 68.1146 201.971 68.1146 201.484 68.119C201.177 66.9479 200.895 65.771 200.596 64.5984C200.466 64.0866 200.243 63.5645 199.804 63.2436C199.341 62.8863 198.735 62.8294 198.172 62.8265C195.388 62.8251 192.605 62.8265 189.821 62.8265C189.824 67.1535 189.815 71.4805 189.825 75.8075C189.776 76.4755 190.19 77.1463 190.862 77.298C192.335 77.6568 193.826 77.947 195.303 78.2897C195.303 78.7097 195.305 79.1312 195.319 79.5541C190.06 79.5877 184.8 79.5585 179.541 79.5687C179.54 79.1414 179.54 78.7155 179.54 78.2912C180.648 78.0286 181.753 77.7574 182.86 77.4905C183.372 77.3505 183.939 77.228 184.314 76.8197C184.623 76.4726 184.631 75.9767 184.637 75.5363C184.631 66.3995 184.641 57.2614 184.632 48.1232C184.691 47.4538 184.269 46.8165 183.62 46.6356C182.278 46.2244 180.897 45.9516 179.54 45.6002C179.54 45.1758 179.54 44.7514 179.538 44.327Z" fill="black"/>
<path d="M252.109 44.3233C256.686 44.3233 261.266 44.3233 265.844 44.3233C268.628 44.3248 271.474 44.281 274.169 45.0846C276.835 45.8575 279.08 47.908 280.124 50.4747C281.097 52.7775 281.028 55.5164 279.825 57.7214C278.601 60.0271 276.348 61.6284 273.932 62.4976C273.327 62.7382 272.675 62.8374 272.084 63.1116C273.337 63.781 274.188 64.9448 275.065 66.024C277.637 69.2995 280.117 72.6465 282.635 75.9643C283.213 76.7299 284.057 77.2914 285.001 77.4868C286.216 77.745 287.426 78.022 288.639 78.2875C288.638 78.7104 288.639 79.1348 288.648 79.5592C285.758 79.5723 282.867 79.5752 279.978 79.5577C279.032 79.5548 278.375 78.7804 277.865 78.0818C275.128 74.258 272.395 70.4326 269.662 66.6059C268.839 65.5019 267.929 64.2593 266.501 63.9501C265.151 63.6818 263.764 63.8597 262.399 63.8029C262.389 67.8134 262.39 71.8239 262.397 75.8345C262.354 76.5097 262.794 77.1674 263.471 77.3074C264.934 77.6589 266.411 77.952 267.878 78.2889C267.877 78.7162 267.877 79.1435 267.874 79.5708C262.622 79.5665 257.37 79.5635 252.119 79.5723C252.106 79.1435 252.106 78.7162 252.11 78.2889C253.471 77.9389 254.858 77.6793 256.199 77.2564C256.824 77.0785 257.239 76.4718 257.197 75.8257C257.207 66.5898 257.203 57.351 257.2 48.1151C257.248 47.4544 256.845 46.8157 256.196 46.6363C254.853 46.2265 253.471 45.9509 252.11 45.6023C252.107 45.175 252.107 44.7491 252.109 44.3233ZM262.393 45.9961C262.4 51.3819 262.377 56.7676 262.405 62.1534C263.937 62.1286 265.47 62.1593 267.003 62.1374C268.524 62.1126 270.083 61.8749 271.439 61.1501C272.491 60.5944 273.373 59.7223 273.922 58.6635C274.69 57.2212 274.922 55.5586 274.929 53.9413C274.938 52.1883 274.46 50.3989 273.395 48.9887C272.169 47.3421 270.21 46.3184 268.181 46.1098C266.258 45.9086 264.321 46.0281 262.393 45.9961Z" fill="black"/>
<path d="M291.478 44.323C295.957 44.323 300.437 44.323 304.917 44.323C308.237 44.3274 311.598 44.2355 314.862 44.9559C317.547 45.5072 320.111 46.6972 322.196 48.4867C325.75 51.4851 327.732 56.0556 328.05 60.6437C328.349 65.0918 327.428 69.8009 324.651 73.3826C323.028 75.4812 320.804 77.0811 318.351 78.0713C315.747 79.0849 312.936 79.3984 310.163 79.5268C303.939 79.6201 297.712 79.5355 291.487 79.5734C291.474 79.1432 291.473 78.7159 291.48 78.2872C292.801 77.959 294.137 77.6732 295.448 77.2998C296.118 77.1394 296.622 76.5269 296.567 75.8254C296.58 66.6828 296.567 57.5403 296.574 48.3962C296.571 47.9325 296.567 47.4031 296.227 47.0458C295.87 46.6812 295.355 46.5558 294.881 46.4289C293.745 46.1591 292.615 45.8718 291.478 45.6049C291.476 45.1776 291.476 44.7503 291.478 44.323ZM301.764 45.9943C301.764 56.0848 301.766 66.1753 301.764 76.2658C301.779 76.6961 301.751 77.1832 302.03 77.5448C302.346 77.9065 302.873 77.8861 303.316 77.9051C305.066 77.8978 306.816 77.9182 308.568 77.8905C310.802 77.8263 313.086 77.6119 315.168 76.7384C317.319 75.8473 319.019 74.0826 320.125 72.0628C321.444 69.6433 321.995 66.8826 322.172 64.154C322.333 61.3466 322.17 58.497 321.457 55.7698C320.839 53.432 319.754 51.1701 318.057 49.4229C316.608 47.9106 314.703 46.8445 312.641 46.4566C309.059 45.7507 305.389 46.0716 301.764 45.9943Z" fill="black"/>
<path d="M5.11719 50.1265C7.31496 49.374 9.50253 48.5923 11.6959 47.8281C11.8214 48.1577 11.9424 48.4902 12.062 48.8242C10.7874 50.3628 9.54045 51.9247 8.25416 53.4531C9.85108 52.8027 11.4582 52.1639 13.0697 51.5441C13.1776 51.8678 13.2929 52.1872 13.4095 52.5081C11.254 53.3583 9.07668 54.1531 6.92558 55.0165C6.77974 54.684 6.65286 54.3442 6.54056 54C7.80644 52.4804 9.05481 50.9447 10.3148 49.4192C8.69459 49.9661 7.08746 50.5524 5.46866 51.1036C5.35053 50.7784 5.2324 50.4517 5.11719 50.1265Z" fill="black"/>
<path d="M68.663 50.0791C70.7777 51.0198 72.885 51.9794 74.9953 52.9317C74.5548 53.865 74.2559 54.8845 73.62 55.7114C72.8004 56.7206 70.992 56.3603 70.4816 55.2126C70.3649 54.953 70.3591 54.6657 70.3328 54.3886C69.1472 54.7488 67.8828 54.5228 66.6621 54.5899C66.8152 54.2384 66.9698 53.8884 67.1127 53.534C68.0228 53.464 68.9401 53.5734 69.8472 53.464C70.4539 53.3955 70.6435 52.7334 70.8506 52.2594C69.9668 51.8773 69.0976 51.4675 68.2182 51.0795C68.367 50.747 68.5142 50.4131 68.663 50.0791ZM71.2195 54.2384C71.2662 55.0128 72.3177 55.5043 72.9229 55.0084C73.3167 54.6147 73.4727 54.059 73.7207 53.5734C73.06 53.2365 72.3731 52.9579 71.7008 52.6488C71.4952 53.1592 71.1889 53.6682 71.2195 54.2384Z" fill="black"/>
<path d="M39.1894 55.8434C39.589 55.3125 39.9259 54.7321 40.3619 54.2304C40.7338 54.1152 40.8651 54.5148 41.0517 54.7423C41.638 55.6158 42.2957 56.4413 42.8528 57.3324C42.6851 57.6736 42.1207 57.519 41.8043 57.697C42.2782 58.3911 42.7026 59.1232 43.251 59.7635C43.8868 59.2195 44.5402 58.6959 45.1585 58.133C44.88 57.9478 44.5737 57.8093 44.2718 57.6692C44.861 57.0378 45.6617 56.6528 46.3354 56.1204C46.6607 55.9367 46.9348 55.5546 47.3388 55.5867C46.8838 57.3528 46.2042 59.062 45.6879 60.8135C44.0195 60.2827 42.2534 60.1893 40.5165 60.1704C38.7723 60.1893 37.0018 60.2797 35.3291 60.8135C34.8128 59.1787 34.263 57.5526 33.7336 55.9221C33.6242 55.7646 33.7103 55.4233 33.9421 55.61C34.9324 56.2605 35.9299 56.9065 36.8793 57.6167C36.5774 57.7917 36.2697 57.9551 35.9707 58.1345C36.5658 58.6857 37.171 59.2253 37.7733 59.7678C38.3012 59.113 38.746 58.397 39.2054 57.697C38.854 57.5832 38.4879 57.5205 38.1248 57.4636C38.3873 56.8671 38.8335 56.383 39.1894 55.8434Z" fill="black"/>
<path d="M12.6322 56.2504C13.2593 55.8319 14.0425 55.5008 14.795 55.7823C15.985 56.2198 16.8017 57.5148 16.7142 58.7763C16.6632 59.5187 16.0623 60.048 15.5038 60.4608C14.286 61.3387 13.0654 62.2108 11.836 63.0713C11.6289 62.7635 11.4189 62.4587 11.2074 62.1554C12.3522 61.3489 13.4883 60.5308 14.6317 59.7214C15.0313 59.4166 15.5359 59.1264 15.6584 58.5999C15.7896 57.7146 15.0502 56.7186 14.1139 56.7623C13.7566 56.8017 13.4547 57.0161 13.1587 57.2013C11.9366 58.0326 10.713 58.8624 9.48942 59.6893C9.28087 59.3903 9.07232 59.0899 8.86523 58.7909C10.1224 57.948 11.3664 57.0817 12.6322 56.2504Z" fill="black"/>
<path d="M63.965 58.4583C64.4594 57.7583 65.0092 57.1006 65.5444 56.4326C67.3543 57.8837 69.1714 59.3275 70.9827 60.7786C70.2302 61.674 69.5856 62.6847 68.6508 63.4051C67.7495 64.1154 66.4457 64.1081 65.4482 63.6064C64.3748 63.0639 63.4735 62.0459 63.3117 60.8253C63.1804 59.9823 63.4881 59.1408 63.965 58.4583ZM64.4638 59.5025C64.1152 60.2273 64.3354 61.1082 64.8459 61.6988C65.4832 62.4557 66.4632 63.0901 67.4943 62.8597C68.4437 62.6482 68.9629 61.7469 69.5652 61.0703C68.2483 60.0086 66.9357 58.9396 65.5969 57.9085C65.1477 58.381 64.7496 58.9148 64.4638 59.5025Z" fill="black"/>
<path d="M38.35 61.4185C40.1949 61.2639 42.0674 61.2712 43.8948 61.5906C44.3541 61.6941 44.8573 61.7656 45.2335 62.0704C45.4567 62.2425 45.2044 62.4817 45.0294 62.5531C44.2593 62.9031 43.4018 62.9804 42.5705 63.0708C40.7461 63.2181 38.8954 63.205 37.0885 62.8871C36.6233 62.7777 36.1041 62.7048 35.738 62.3708C35.5951 62.1302 35.8795 61.9741 36.0603 61.8925C36.7852 61.5921 37.5756 61.5046 38.35 61.4185Z" fill="black"/>
<path d="M35.7763 73.5935C36.3538 73.2376 37.1793 73.6897 37.1997 74.3635C37.277 75.0693 36.4384 75.6323 35.8171 75.2837C35.1405 74.9862 35.1157 73.923 35.7763 73.5935Z" fill="black"/>
<path d="M45.5288 75.1695C46.1661 74.8079 47.025 75.4029 46.9157 76.1248C46.869 76.8306 45.9488 77.2375 45.3975 76.7912C44.8258 76.4106 44.906 75.4525 45.5288 75.1695Z" fill="black"/>
</svg>
