<svg width="297" height="95" viewBox="0 0 297 95" fill="none" xmlns="http://www.w3.org/2000/svg">
<g clip-path="url(#clip0_293_10)">
<path d="M66.8 50.6L71.8 48V8.3H68L58.7 20.7H57.7L58.2 6.9H98.7L99.3 20.7H98.2L89 8.3H85.1V47.9L90.1 50.6V51.9H66.9L66.8 50.6ZM103.8 48.8V4.9L100 3.4V2.5L114.2 0H115.7V20.8L116 20.4C119.4 17.5 123.7 15.9 128.2 15.9C134.4 15.9 137.2 19.4 137.2 25.9V48.9L140.5 50.6V51.9H122V50.6L125.4 48.8V25.9C125.4 22.3 123.8 20.9 120.8 20.9C119 20.9 117.3 21.4 115.9 22.5V48.9L119.2 50.7V51.9H100.7V50.7L103.8 48.8ZM152.2 35.4C152.6 42.6 155.8 48.2 163.6 48.2C167.3 48.2 169.9 46.5 172.4 45.2V46.7C169 50.7 164 53 158.8 52.9C146.8 52.9 140.8 46.3 140.8 34.8C140.8 23.5 147.4 16.5 158.2 16.5C168.4 16.5 173.7 21.5 173.7 34.9V35.3L152.2 35.4ZM152 33.7L162.5 33C162.5 24 161 18 157.9 18C154.6 18 152 25 152 33.6M0 69.5C0 50.4 12.7 43.5 26.8 43.5C32.8 43.5 38.4 44.5 41.6 45.8L41.9 59.2H40.5L32.2 46.2C30.5 45.6 28.8 45.3 27 45.4C19.5 45.4 15.7 54.1 15.8 68.3C15.9 85.3 18.8 93 25.8 93C27.2 93 28.6 92.8 29.9 92.3V74.1L25.4 71.5V69.9H47.4V71.6L42.9 74.1V92.1C37.5 94 31.9 94.9 26.2 94.9C10.2 94.9 0 87.4 0 69.5ZM47.1 60.5V59.5L62 56.9L63.6 57V86C63.6 89.6 65.3 90.6 68.1 90.6C70 90.6 71.7 89.8 72.9 88.4V62.4L68.9 60.6V59.4L83.6 56.9L85 57.1V90.4L89 92V93.1L74.4 94.9L73 94.8V90.4H72.6C69.6 93.2 65.6 94.9 61.5 94.9C54.4 94.9 51 90.7 51 84.4V62.4L47.1 60.5ZM141.6 56.8L142.8 56.9V67.7H143.2C144.8 59.8 148.2 56.9 152.5 56.9C153.1 56.9 153.7 57 154.3 57.2V68.2C153.3 68 152.3 67.9 151.3 67.9C148.5 67.8 145.8 68.4 143.3 69.5V90.7L146.7 92.6V93.9H127.4V92.6L130.9 90.7V61.7L126.9 60.5V59.5L141.6 56.8ZM178.7 57.7V46.4L174.7 44.9V44L189.7 41.3L191 41.5V90.3L195.2 91.8V92.9L180.4 94.9L179.3 94.8V90.8H178.9C176.4 93.5 172.8 95 169.1 94.9C161.1 94.9 155.2 88.8 155.2 76.2C155.2 63 162.1 56.5 172.4 56.5C174.6 56.4 176.7 56.8 178.7 57.7ZM178.7 88.9V59.9C177.6 59 176.2 58.5 174.7 58.6C170.7 58.7 168.2 64.8 168.2 75.5C168.2 85.1 170 90.5 175.2 90.3C176.5 90.3 177.7 89.9 178.7 88.9ZM211.5 56.9H212.8V90.9L216.2 92.7V93.9H197V92.6L200.4 90.7V62.3L196.4 60.6V59.5L211.5 56.9ZM212.9 47.7C212.8 51.2 209.9 54.1 206.4 54H206.3C202.8 54 200 51.2 200 47.7C200 44.2 202.8 41.4 206.3 41.4C209.9 41.3 212.8 44.1 212.9 47.7ZM259.2 90.8V61.9L255.2 60.5V59.1L269.9 56.3L271.4 56.5V60.8H271.8C275.3 57.8 279.7 56.1 284.3 56.1C290.7 56.1 293.6 59.1 293.6 65.9V90.7L297 92.6V93.9H277.8V92.6L281.3 90.7V66.7C281.3 62.9 279.7 61.4 276.6 61.4C274.8 61.4 273 62 271.6 63.1V90.7L274.9 92.6V93.9H255.8V92.6L259.2 90.8ZM237.9 72.8V67.9C237.9 60.6 236.4 58.3 231.9 58.3C231.4 58.3 230.8 58.3 230.3 58.3L222.3 69.3H221.2V59.3C225.5 57.8 230.1 57 234.7 56.9C244.5 56.9 250.2 59.6 250.2 67.9V91.4L253.7 92.4V93.3C251.5 94.4 249 95 246.5 94.9C241.6 94.9 239.3 93.3 238.2 90.7H237.9C235.9 93.5 232.9 95 228.3 95C222.5 95 218.5 91.4 218.5 85.1C218.5 79.1 222.3 75.7 230 74.3L237.9 72.8ZM237.9 89V74.4L235.5 74.6C231.6 74.9 230.3 77.3 230.3 82.8C230.3 88.7 232.2 90.2 234.9 90.2C236.1 90.3 237.2 89.8 237.9 89ZM109.7 72.6V67.9C109.7 60.6 108.1 58.2 103.6 58.2C103.1 58.2 102.6 58.3 102.1 58.4L94 69.1H93V59.1C97.3 57.6 101.8 56.9 106.4 56.8C116.2 56.8 121.9 59.5 121.9 67.8V91.3L125.4 92.3V93.2C123.2 94.3 120.7 94.9 118.2 94.8C113.3 94.8 111 93.2 109.9 90.6H109.6C107.6 93.4 104.6 94.9 100.1 94.9C94.2 94.9 90.3 91.3 90.3 85C90.3 79 94 75.6 101.7 74.2L109.7 72.6ZM109.7 88.9V74.4L107.2 74.6C103.4 74.9 102 77.3 102 82.8C102 88.7 104 90.2 106.6 90.2C107.8 90.3 108.9 89.8 109.7 88.9Z" fill="#121212"/>
</g>
<defs>
<clipPath id="clip0_293_10">
<rect width="297" height="95" fill="white"/>
</clipPath>
</defs>
</svg>
