<svg width="463" height="72" viewBox="0 0 463 72" fill="none" xmlns="http://www.w3.org/2000/svg">
<g clip-path="url(#clip0_293_13)">
<path d="M26.5363 22.7324V47.7714C29.9193 45.9444 32.2883 42.7634 33.4383 39.1764L33.7093 39.3124C32.9643 48.2454 26.8743 57.1774 17.4003 57.1774C7.85831 57.1774 0.820312 50.0724 0.820312 38.7024C0.820312 30.1764 6.36931 24.8294 13.4753 20.0244C12.437 19.7521 11.3677 19.6156 10.2943 19.6184C5.42131 19.6184 2.57931 22.9344 2.57931 26.3184H2.17331C2.10531 25.8444 2.10531 25.3714 2.10531 24.8974C2.10531 18.8744 5.28631 11.5654 13.0013 11.5654C17.9413 11.5654 21.7313 16.0994 27.4833 16.0994C29.7843 16.0994 32.6263 15.0164 33.7763 12.5124H33.9793C33.9123 16.9124 32.5593 21.4464 26.5363 22.7324ZM30.1903 48.3804C26.8063 51.9664 23.1523 55.0124 18.4153 55.0124C9.61831 55.0124 2.85131 48.1094 2.85131 38.0934C2.85131 32.2064 5.28731 29.0264 7.99431 25.3034H7.72331C6.03131 26.9954 1.56531 31.2584 1.56531 38.4994C1.56531 49.5984 8.53531 56.4334 17.6713 56.4334C24.0323 56.4334 28.3633 52.0354 30.3263 48.4484L30.1903 48.3804ZM32.8963 15.5594C31.7463 17.7244 29.3103 20.4984 24.3703 20.4984C19.4303 20.4984 14.8963 17.1144 10.9033 17.1144C7.24831 17.1144 4.74531 19.5514 3.79731 21.3784L3.86531 21.5144C5.15131 20.2284 7.11331 18.9424 10.2943 18.9424C15.5723 18.9424 18.9563 22.1914 24.3023 22.1914C29.9873 22.1914 32.5583 18.4684 33.0323 15.6274L32.8963 15.5594ZM14.0833 20.2284C10.6323 23.8154 7.45131 27.7404 7.45131 35.3874C7.45131 39.5824 8.87231 43.9134 12.0533 46.6204L14.0153 45.6044V27.4694L12.1883 28.4164L11.8503 27.7394L21.3243 22.5954C18.7533 22.0554 16.4523 20.9054 14.0833 20.2284ZM25.7913 22.8674C25.3173 22.9344 24.8443 22.9344 24.3023 22.9344C23.3553 22.9344 22.4753 22.8674 21.5953 22.6634V42.4234L12.7303 47.2304C14.5573 48.5834 16.7903 49.3954 19.6323 49.3954C21.9333 49.3954 23.9633 48.9214 25.7903 48.1094L25.7913 22.8674ZM16.0463 26.3194L14.7603 27.0634V45.2004L16.0463 44.5234V26.3194ZM54.9583 28.8904V52.3054C54.9583 58.8014 49.2063 63.2014 42.7773 64.4864L42.6423 64.2154C45.8233 62.6584 47.6503 59.4784 47.6503 56.0944V31.8674L43.9963 28.5524L42.5753 30.1084V48.9894L44.6053 50.8164V50.9524L39.1243 56.9074L32.8313 51.1554V50.8844L35.2673 48.3124V18.4014L42.4403 10.7554L42.5753 10.8224V28.9584L48.4633 22.5974L54.6213 28.1474L55.7713 26.9284L56.3133 27.4034L54.9583 28.8904ZM36.0103 51.0194V50.8844L37.4313 49.4624V17.2504L36.0103 18.7404V48.7864L33.8443 50.9524V51.0874L39.1223 55.8244L40.0693 54.7414L36.0103 51.0194ZM49.8153 30.7844L45.4163 26.9954L44.4693 28.0104L48.3943 31.5304V55.8924C48.3943 57.5164 48.0563 59.2074 47.4473 60.1554L47.5153 60.2234C49.2073 59.0044 49.8163 57.1774 49.8163 54.8094V30.7844H49.8153ZM65.7183 42.4924V45.9434L72.2823 51.0864L76.0723 47.0264L76.6143 47.5674L67.8173 56.9734L58.8843 49.8004L57.5313 51.2214L56.9893 50.6804L58.5463 49.0564V31.9354L71.3363 22.5964L78.0363 33.4244L65.7183 42.4924ZM60.7103 48.4484V31.2584L59.2893 32.2744V49.1254L67.6813 55.9604L68.7643 54.8104L60.7103 48.4484ZM65.8543 27.6044L65.7183 27.6724V41.5454L71.7413 37.1464L65.8543 27.6044ZM67.6133 26.2514L66.3953 27.1304L72.3513 36.6724L73.5693 35.7924L67.6133 26.2514ZM122.147 56.9064L112.74 48.7854L105.567 56.9064L95.8223 48.5144V35.2514H93.9273C92.2353 35.2514 91.3563 36.3344 90.9493 37.6194H90.7463C90.5303 36.7792 90.4169 35.9159 90.4083 35.0484C90.4083 33.2884 90.8823 28.6874 95.8223 28.6874V17.0474C95.8223 14.8144 93.1833 13.9344 93.1833 10.9564C93.1833 7.10043 96.8373 3.31043 103.537 0.94043L103.808 1.14343C101.372 2.56543 100.086 3.91843 100.086 6.82843C100.086 11.2954 104.417 10.1444 104.417 17.1824V19.8894L112.335 11.5654L120.659 19.7534L128.509 11.5654L136.088 19.0094V44.0484L122.147 56.9064ZM97.9883 47.4324V33.1544H94.1983C92.2353 33.1544 91.3563 34.4394 91.2203 35.5904L91.2873 35.6584C91.9643 34.9144 92.6413 34.5084 94.1973 34.5084H96.5653V48.1784L105.498 55.8934L106.513 54.6744L97.9883 47.4324ZM97.9883 16.3704C97.9883 13.5964 95.5523 12.6484 95.5523 10.8894C95.5523 8.45243 96.4993 6.42343 97.9883 4.52843L97.8533 4.46143C95.8233 6.01843 93.9283 8.52243 93.9283 10.9574C93.9283 13.3944 96.5673 14.5444 96.5673 16.7104V28.6884H97.9883V16.3704ZM112.267 23.1384L107.124 18.1304L104.417 20.9044V44.8604L110.575 50.0714L112.267 48.1764V23.1384ZM114.432 47.2974V22.1914L108.68 16.5064L107.597 17.5894L113.011 22.7994V48.0414L122.147 55.9594L123.23 54.9434L114.432 47.2974ZM127.561 22.2584L123.298 18.1974L120.862 20.7014V44.7934L127.494 50.6124L127.561 50.5454V22.2584ZM129.726 21.3114L124.786 16.5064L123.771 17.5894L128.305 21.9204V50.2074L129.726 48.8534V21.3114ZM158.481 56.9064L152.052 51.0864L146.3 56.9064L139.262 50.6804L138.314 51.6954L137.773 51.1544L138.991 49.8684V31.7334L151.714 22.5294L159.023 28.2144L160.309 26.8604L160.851 27.4024L159.362 28.9584V47.7044L162.948 51.0194L164.099 49.8014L164.64 50.2754L158.481 56.9064ZM141.157 49.3954V31.1234L139.736 32.1384V50.0724L146.233 55.8924L147.316 54.8094L141.157 49.3954ZM152.052 31.5974L146.503 27.2664L146.3 27.4024V47.0944L150.902 51.0864L152.052 49.9364V31.5974ZM154.218 50.0044V30.5824L148.466 25.9124L147.113 26.8594L152.797 31.3264V50.6804L158.482 55.8234L159.497 54.7404L154.218 50.0044ZM178.174 34.8454H185.144V49.3274L174.384 56.9064C172.963 55.2824 170.932 54.1324 168.429 54.1324C166.399 54.1324 164.774 54.8094 162.609 56.6364L162.271 56.5004L171.475 43.1014H165.79V30.5144L177.092 22.6644C178.445 23.7474 179.46 24.3554 181.22 24.3554C182.574 24.3554 184.536 24.0844 186.025 22.8674L186.296 23.0024L178.174 34.8454ZM170.595 52.1694C168.632 52.1694 167.076 52.8464 165.722 53.7934V53.9294C166.805 53.4554 167.888 53.3204 168.903 53.3204C170.459 53.3204 172.896 54.0654 174.52 55.9604L176.077 54.8104C174.79 53.3204 173.234 52.1694 170.595 52.1694ZM177.835 40.8004H174.045L166.127 52.2384L166.195 52.3734C168.157 50.9524 170.052 50.0054 172.353 50.0054C174.383 50.0054 176.481 50.9524 177.767 52.5764L177.835 52.5094V40.8004ZM167.955 40.8004V29.9064L166.534 30.9214V42.2904H172.015L173.098 40.8014L167.955 40.8004ZM182.099 27.5364C180.678 28.5524 179.866 29.0934 177.497 29.0934C176.143 29.0934 174.519 28.4844 173.234 27.1304L173.099 27.1984V37.0784H175.67L182.167 27.6034L182.099 27.5364ZM178.851 26.9274C177.633 26.9274 176.077 26.3194 175.061 24.9654L173.369 26.1154C174.655 27.6724 175.873 28.3484 177.767 28.3484C178.985 28.3484 180.745 28.0094 182.572 26.4524L182.639 26.2504C181.49 26.7254 180.069 26.9274 178.851 26.9274ZM180.001 38.5684H175.602L174.587 39.9894H178.58V53.1174L180.001 52.1024V38.5684ZM208.491 28.8904V52.3054C208.491 58.8014 202.739 63.2014 196.31 64.4864L196.175 64.2154C199.356 62.6584 201.183 59.4784 201.183 56.0944V31.8674L197.529 28.5524L196.108 30.1084V48.9894L198.138 50.8164V50.9524L192.657 56.9074L186.364 51.1554V50.8844L188.8 48.3124V18.4014L195.973 10.7554L196.108 10.8224V28.9584L201.996 22.5974L208.154 28.1474L209.304 26.9284L209.846 27.4034L208.491 28.8904ZM189.543 51.0194V50.8844L190.964 49.4624V17.2504L189.543 18.7394V48.7854L187.377 50.9514V51.0864L192.655 55.8234L193.602 54.7404L189.543 51.0194ZM203.348 30.7844L198.949 26.9954L198.002 28.0104L201.927 31.5304V55.8924C201.927 57.5164 201.589 59.2074 200.98 60.1554L201.048 60.2234C202.74 59.0044 203.349 57.1774 203.349 54.8094L203.348 30.7844ZM220.808 56.9064L214.988 51.5604L213.634 52.9814L213.092 52.4394L214.649 50.7484V31.1914L211.807 28.4844L210.724 29.7034L210.182 29.1614L216.272 22.5294L221.686 27.4024L223.04 25.9134L223.649 26.3874L221.957 28.2144V47.9754L225.206 51.0204L226.695 49.4634L227.236 50.0054L220.808 56.9064ZM216.815 50.2754V30.1084L213.296 26.8604L212.349 27.9434L215.394 30.8534V50.9524L220.808 55.8244L221.823 54.7414L216.815 50.2754ZM218.845 21.9884L213.296 16.9134L218.372 11.4994L223.921 16.5744L218.845 21.9884ZM215.394 15.8294L214.379 16.8444L218.777 20.9724L219.792 19.8224L215.394 15.8294ZM249.423 56.9064L243.535 51.5604V31.8004L239.948 28.5524L238.053 30.5824V48.8534L240.151 50.8154V51.0864L234.602 56.9064L228.308 51.1544V50.9514L230.745 48.3804V31.3264L227.564 28.4164L226.278 29.8374L225.737 29.2964L231.895 22.5964L238.053 28.0784V29.4314L244.482 22.5964L250.504 28.0104L251.858 26.5894L252.467 27.1304L250.843 28.8224V48.1764L253.888 51.0184L255.377 49.3944L255.918 49.9354L249.423 56.9064ZM231.557 51.0194V50.8844C231.557 51.0194 232.911 49.5304 232.911 49.5304V30.3104L229.053 26.7914L228.105 27.8064L231.489 30.9194V48.7844L229.391 50.9504V51.0854L234.602 55.8224L235.684 54.6724L231.557 51.0194ZM245.7 50.4784V30.6504L241.505 26.8604L240.422 28.0104L244.279 31.4614V51.1544L249.354 55.8914L250.437 54.7404L245.7 50.4784ZM268.506 69.0874C266.274 66.6514 264.717 65.6364 262.619 65.6364C260.386 65.6364 257.814 66.5164 255.175 67.9374L254.972 67.7354L264.311 56.9074L257.679 51.6294L256.393 52.9834L255.852 52.5094L257.34 50.8854V31.7334L270.198 22.5294L277.371 28.2144L278.59 26.8604L279.131 27.4024L277.71 28.9584V52.1034C277.71 55.6224 279.672 55.4874 279.672 58.1254C279.672 61.1704 275.273 64.0124 268.506 69.0874ZM259.506 50.3424V31.1914L258.085 32.2074V50.9524L264.784 56.3664L265.8 55.1474L259.506 50.3424ZM264.243 63.8774C262.01 63.8774 259.979 64.5544 258.085 65.8394V65.9754C259.303 65.5014 260.656 64.8924 262.957 64.8924C265.055 64.8924 266.814 66.0424 268.574 68.0734L269.928 66.9904C268.235 65.0284 266.205 63.8774 264.243 63.8774ZM272.499 57.3804C270.808 56.2974 270.401 55.1474 270.401 52.2374V51.0184L259.167 64.0114L259.235 64.0784C261.4 62.7934 263.363 61.8464 266.544 61.8464C269.251 61.8464 271.078 62.9284 273.176 64.6884C274.462 63.6054 275.341 62.5234 275.341 60.8314C275.341 59.4784 274.19 58.4634 272.499 57.3804ZM270.401 31.5974L264.784 27.1994L264.648 27.3344V48.1094L268.98 51.4934L270.401 49.8694V31.5974ZM274.529 56.4334C272.769 55.0794 272.566 53.9294 272.566 51.0194V30.4474L266.881 25.8454L265.596 26.7254L271.145 31.1234V51.9664C271.145 54.8764 271.281 55.6894 273.108 56.9064C274.732 57.9894 276.017 59.1394 276.017 60.6964C276.017 61.1014 275.95 61.7784 275.95 61.7784L276.017 61.8464C276.356 61.5074 276.762 60.9664 276.762 60.0864C276.763 58.5984 276.018 57.5834 274.529 56.4334ZM290.771 56.9064L284.545 52.0344L283.259 53.4554L282.718 52.9134L284.206 51.2894V27.6044H280.281L280.145 27.4694L282.514 23.9494H284.205V19.4164L291.379 11.7694L291.514 11.9054V23.9504H296.928L297.064 24.0864L294.695 27.6054H291.514V48.1104L295.237 50.9534L296.658 49.3964L297.199 49.9374L290.771 56.9064ZM286.372 18.2654L284.951 19.8224V23.9504H286.372V18.2654ZM286.372 50.6134V27.6044H284.951V51.4254L290.703 55.8924L291.718 54.8094L286.372 50.6134ZM319.328 29.5674V48.5154L307.891 56.9744L299.296 50.4784L298.281 51.6284L297.74 51.0864L298.958 49.7334V31.1914L310.937 22.5964L318.922 28.8234L320.207 27.4694L320.749 28.0104L319.328 29.5674ZM301.125 49.0574V30.5824L299.703 31.5974V49.8014L307.824 56.0274L309.11 55.0804L301.125 49.0574ZM312.02 31.8004L306.335 27.3334L306.268 27.4014V47.5674L312.02 51.8984V31.8004ZM314.186 30.5824L307.892 25.7094L306.607 26.6564L312.765 31.3934V52.4404L314.186 51.3584V30.5824ZM345.18 56.9064L339.292 51.5604V31.8004L335.705 28.5524L333.81 30.5824V48.8534L335.908 50.8154V51.0864L330.359 56.9064L324.065 51.1544V50.9514L326.502 48.3804V31.3264L323.321 28.4164L322.035 29.8374L321.494 29.2964L327.652 22.5964L333.81 28.0784V29.4314L340.239 22.5964L346.262 28.0104L347.615 26.5894L348.224 27.1304L346.6 28.8224V48.1764L349.645 51.0184L351.134 49.3944L351.675 49.9354L345.18 56.9064ZM327.313 51.0194V50.8844C327.313 51.0194 328.667 49.5304 328.667 49.5304V30.3104L324.81 26.7914L323.863 27.8064L327.247 30.9194V48.7844L325.149 50.9504V51.0854L330.36 55.8224L331.443 54.6724L327.313 51.0194ZM341.457 50.4784V30.6504L337.262 26.8604L336.179 28.0104L340.036 31.4614V51.1544L345.111 55.8914L346.194 54.7404L341.457 50.4784ZM386.986 56.9064C385.091 54.8764 384.415 54.1994 382.181 53.5904V66.8544L382.045 66.9214L379.338 64.4844L371.488 71.7254L371.352 71.6584V53.4554C368.984 53.9964 366.48 55.2154 364.043 57.6504L363.908 57.5834C364.382 52.3724 366.953 48.5154 371.351 47.0264V33.8304H369.93C367.968 33.8304 366.885 34.8454 365.938 36.6724H365.735C365.532 36.0644 365.396 35.1154 365.396 33.5604C365.396 30.7174 367.494 27.7404 370.946 27.7404H371.351V20.4314L368.577 17.9274L367.223 19.2814L366.749 18.8074L373.584 11.5664L379.945 17.3864V23.5444L381.434 21.9204V14.1374H382.178V21.2434L391.178 11.5654L398.825 18.5364V47.9744L386.986 56.9064ZM371.354 50.9514C368.58 51.4924 366.618 53.1844 365.332 55.4174L365.399 55.5534C367.295 53.9294 369.053 53.1854 371.354 52.6434V50.9514ZM373.52 31.5304H369.798C367.226 31.5304 366.211 33.1544 366.144 35.0494L366.211 35.1164C367.023 33.7624 367.835 33.2894 369.459 33.0874H372.099V69.9684L373.52 68.6144V31.5304ZM373.52 19.3484L370.136 16.2364L369.053 17.3864L372.099 20.0924V27.7394H373.52V19.3484ZM381.438 23.2054L379.949 24.7624V63.9454L381.438 65.2994V23.2054ZM390.303 21.6494L386.31 17.9954L382.182 22.4624V46.2824C385.701 46.6214 388.137 47.6364 390.235 49.9364L390.303 49.8694V21.6494ZM382.182 50.9514V52.7114C384.483 53.2524 385.43 53.9294 387.054 55.8234L388.611 54.6054C386.986 52.5754 385.362 51.3584 382.182 50.9514ZM392.468 20.5674L387.866 16.3034L386.783 17.4534L391.047 21.3784V52.8464L392.468 51.7634V20.5674ZM422.447 29.5674V48.5154L411.009 56.9744L402.415 50.4784L401.399 51.6284L400.858 51.0864L402.076 49.7334V31.1914L414.055 22.5964L422.04 28.8234L423.325 27.4694L423.867 28.0104L422.447 29.5674ZM404.243 49.0574V30.5824L402.821 31.5974V49.8014L410.942 56.0274L412.228 55.0804L404.243 49.0574ZM415.138 31.8004L409.454 27.3334L409.386 27.4014V47.5674L415.138 51.8984V31.8004ZM417.304 30.5824L411.01 25.7094L409.725 26.6564L415.883 31.3934V52.4404L417.304 51.3584V30.5824ZM438.146 34.8454H445.117V49.3274L434.357 56.9064C432.936 55.2824 430.906 54.1324 428.402 54.1324C426.372 54.1324 424.748 54.8094 422.582 56.6364L422.244 56.5004L431.447 43.1014H425.762V30.5144L437.064 22.6644C438.418 23.7474 439.432 24.3554 441.192 24.3554C442.546 24.3554 444.507 24.0844 445.997 22.8674L446.268 23.0024L438.146 34.8454ZM430.567 52.1694C428.605 52.1694 427.048 52.8464 425.695 53.7934V53.9294C426.778 53.4554 427.86 53.3204 428.876 53.3204C430.433 53.3204 432.868 54.0654 434.492 55.9604L436.049 54.8104C434.764 53.3204 433.207 52.1694 430.567 52.1694ZM437.809 40.8004H434.019L426.102 52.2384L426.169 52.3734C428.131 50.9524 430.026 50.0054 432.327 50.0054C434.357 50.0054 436.455 50.9524 437.741 52.5764L437.808 52.5094L437.809 40.8004ZM427.929 40.8004V29.9064L426.507 30.9214V42.2904H431.988L433.071 40.8014L427.929 40.8004ZM442.072 27.5364C440.65 28.5524 439.839 29.0934 437.469 29.0934C436.115 29.0934 434.491 28.4844 433.206 27.1304L433.07 27.1984V37.0784H435.641L442.138 27.6034L442.072 27.5364ZM438.823 26.9274C437.605 26.9274 436.049 26.3194 435.034 24.9654L433.342 26.1154C434.628 27.6724 435.846 28.3484 437.741 28.3484C438.959 28.3484 440.719 28.0094 442.546 26.4524L442.613 26.2504C441.463 26.7254 440.042 26.9274 438.823 26.9274ZM439.974 38.5684H435.576L434.561 39.9894H438.553V53.1174L439.974 52.1024V38.5684ZM456.351 56.9064L450.125 52.0344L448.839 53.4554L448.298 52.9134L449.786 51.2894V27.6044H445.861L445.726 27.4694L448.094 23.9494H449.785V19.4164L456.959 11.7694L457.095 11.9054V23.9504H462.508L462.644 24.0864L460.275 27.6054H457.095V48.1104L460.817 50.9534L462.238 49.3964L462.779 49.9374L456.351 56.9064ZM451.952 18.2654L450.531 19.8224V23.9504H451.952V18.2654ZM451.952 50.6134V27.6044H450.531V51.4254L456.283 55.8924L457.298 54.8094L451.952 50.6134Z" fill="#231F20"/>
</g>
<defs>
<clipPath id="clip0_293_13">
<rect width="463" height="72" fill="white"/>
</clipPath>
</defs>
</svg>
